<svg xmlns="http://www.w3.org/2000/svg" xmlns:xlink="http://www.w3.org/1999/xlink" width="44.8" height="49.219" viewBox="0 0 44.8 49.219">
  <defs>
    <clipPath id="clip-path">
      <rect id="Rectangle_13" data-name="Rectangle 13" width="44.8" height="49.219" fill="#242424"/>
    </clipPath>
  </defs>
  <g id="Group_47" data-name="Group 47" clip-path="url(#clip-path)">
    <path id="Path_85" data-name="Path 85" d="M26.465,34.987A12.023,12.023,0,0,0,16.622,45.68,15.466,15.466,0,0,1,15.1,51.86a.6.6,0,0,0-.026.066c-.046.136-.091.249-.136.362-.053.133-.106.266-.153.406a2.036,2.036,0,0,0,.034,1.6,2.013,2.013,0,0,0,1.26,1.034,5.061,5.061,0,0,1,1.057.349.692.692,0,0,1,.181.168c.1.628.194,1.233.291,1.837.1.626.2,1.251.3,1.9a2.839,2.839,0,0,0,2.936,2.559h3.64a1.191,1.191,0,0,1,1.2,1.227.578.578,0,0,0,.576.546H26.3a.577.577,0,0,0,.544-.609,2.331,2.331,0,0,0-2.35-2.319H20.844a1.705,1.705,0,0,1-1.793-1.579c-.1-.653-.2-1.281-.3-1.909-.095-.594-.19-1.189-.286-1.806a1.52,1.52,0,0,0-.81-1.05,5.755,5.755,0,0,0-1.258-.425.864.864,0,0,1-.534-.421.919.919,0,0,1,.013-.719c.046-.136.091-.25.136-.362s.1-.247.148-.392a16.806,16.806,0,0,0,1.617-6.586,10.97,10.97,0,0,1,8.871-9.611,10.762,10.762,0,0,1,12.546,8.6,10.569,10.569,0,0,1-1.581,8.032,6.143,6.143,0,0,0-1.088,3.64,15.244,15.244,0,0,0,.723,6.743.578.578,0,1,0,1.085-.4,14.287,14.287,0,0,1-.654-6.3,5.036,5.036,0,0,1,.891-3.033,11.7,11.7,0,0,0,1.757-8.906,12.033,12.033,0,0,0-13.861-9.518" transform="translate(-6.178 -14.699)" fill="#242424"/>
    <path id="Path_86" data-name="Path 86" d="M10.372,26.278a.579.579,0,0,0-.533-.354H7.461V16.453a.578.578,0,0,0-.578-.578H3.534a.578.578,0,0,0-.578.578v9.471H.578a.578.578,0,0,0-.413.982l4.63,4.729a.578.578,0,0,0,.827,0l4.631-4.729a.578.578,0,0,0,.12-.628M5.208,30.4,1.953,27.08H3.534a.578.578,0,0,0,.578-.578V17.031H6.305V26.5a.578.578,0,0,0,.578.578H8.464Z" transform="translate(0 -6.7)" fill="#242424"/>
    <path id="Path_87" data-name="Path 87" d="M69.86,26.278a.579.579,0,0,0-.533-.354H66.949V16.453a.578.578,0,0,0-.578-.578H63.022a.578.578,0,0,0-.578.578v9.471H60.066a.578.578,0,0,0-.413.982l4.63,4.729a.578.578,0,0,0,.827,0l4.631-4.729a.578.578,0,0,0,.12-.628M64.7,30.4,61.441,27.08h1.581A.578.578,0,0,0,63.6,26.5V17.031h2.193V26.5a.578.578,0,0,0,.578.578h1.581Z" transform="translate(-25.105 -6.7)" fill="#242424"/>
    <path id="Path_88" data-name="Path 88" d="M36.5,15.666a.579.579,0,0,0,.814,0l4.728-4.631a.578.578,0,0,0-.4-.991H39.166V.578A.578.578,0,0,0,38.588,0h-3.35a.577.577,0,0,0-.578.578v9.471H32.283a.578.578,0,0,0-.409.987Zm-1.266-4.461a.578.578,0,0,0,.578-.578V1.156H38.01v9.471a.578.578,0,0,0,.578.578h1.637l-3.308,3.239-3.24-3.239Z" transform="translate(-13.38 0)" fill="#242424"/>
  </g>
</svg>
