<svg id="Group_54" data-name="Group 54" xmlns="http://www.w3.org/2000/svg" xmlns:xlink="http://www.w3.org/1999/xlink" width="48" height="60.654" viewBox="0 0 48 60.654">
  <defs>
    <clipPath id="clip-path">
      <rect id="Rectangle_16" data-name="Rectangle 16" width="48" height="60.654" fill="#242424"/>
    </clipPath>
  </defs>
  <g id="Group_53" data-name="Group 53" transform="translate(0 0)" clip-path="url(#clip-path)">
    <path id="Path_108" data-name="Path 108" d="M53.731,0a8.347,8.347,0,1,0,8.347,8.347A8.357,8.357,0,0,0,53.731,0m.88,15.253V13.3a.69.69,0,1,0-1.38,0v1.99A6.973,6.973,0,0,1,46.8,9.037h1.935a.69.69,0,0,0,0-1.38H46.8a6.979,6.979,0,0,1,6.243-6.243V3.446a.69.69,0,1,0,1.38,0V1.414a6.98,6.98,0,0,1,6.243,6.243h-1.93a.69.69,0,1,0,0,1.38h1.93a6.976,6.976,0,0,1-6.053,6.216" transform="translate(-14.078 0)" fill="#242424"/>
    <path id="Path_109" data-name="Path 109" d="M59.827,7.3,56.68,10.543a.69.69,0,0,0,.014.975.683.683,0,0,0,.48.2.691.691,0,0,0,.5-.209l3.148-3.243a.69.69,0,1,0-.991-.96" transform="translate(-17.522 -2.2)" fill="#242424"/>
    <path id="Path_110" data-name="Path 110" d="M37.817,43.931a4.162,4.162,0,0,0-1.7-.394H33.653c1.147-3.479,1.263-6.37.348-9.024a9,9,0,0,0-6.8-6.448,9.731,9.731,0,0,0-7.9,1.582,17.3,17.3,0,0,0-2.01,1.515,12.369,12.369,0,0,0-6.622-3.217A9.285,9.285,0,0,0,.52,34.743a13.9,13.9,0,0,0,.555,9.092,22.626,22.626,0,0,0,6.373,8.7,31.354,31.354,0,0,0,9.329,5.809,2,2,0,0,0,.639.119,1.338,1.338,0,0,0,.61-.143,37.041,37.041,0,0,0,8.7-5.33,22.091,22.091,0,0,0,6.385-8.071h3.005a2.845,2.845,0,0,1,1.084.248,3.038,3.038,0,0,1,1.761,2.93c-.016.12-.4,2.943-2.865,3.028-.432.014-.884.011-1.344.006-1.881-.015-4.022-.037-5.307,1.292a4.592,4.592,0,0,0-1.067,3.558v.272h-.593a.69.69,0,0,0-.69.69V58.3a5.845,5.845,0,0,0-3.2,5.269c0,3.1,2.322,5.712,5.07,5.712s5.07-2.616,5.069-5.678a5.584,5.584,0,0,0-2.884-5.164V56.942a.689.689,0,0,0-.69-.69h-.7v-.3a3.364,3.364,0,0,1,.68-2.569c.873-.9,2.618-.886,4.3-.871.479.006.953.01,1.4-.008,2.918-.1,4.015-2.817,4.191-4.284a4.411,4.411,0,0,0-2.517-4.287M25.849,51.923a35.769,35.769,0,0,1-8.414,5.149c-.011.006-.043.022-.173-.019A29.993,29.993,0,0,1,8.37,51.509a21.3,21.3,0,0,1-6.008-8.171,12.552,12.552,0,0,1-.519-8.2A7.949,7.949,0,0,1,9.476,29.25a8.552,8.552,0,0,1,1.021.062,10.9,10.9,0,0,1,5.9,2.9,2.008,2.008,0,0,0,.45.343.7.7,0,0,0,.922.008,18.962,18.962,0,0,1,2.277-1.76,8.328,8.328,0,0,1,6.832-1.4,7.7,7.7,0,0,1,5.809,5.536c.867,2.514.7,5.289-.521,8.7a20.538,20.538,0,0,1-6.32,8.276M30.181,59.5a4.2,4.2,0,0,1,2.471,4.068c0,2.349-1.69,4.333-3.69,4.333s-3.69-1.984-3.69-4.333a4.385,4.385,0,0,1,2.745-4.157.69.69,0,0,0,.46-.65V57.631h1.291v1.233a.69.69,0,0,0,.414.632" transform="translate(0 -8.623)" fill="#242424"/>
  </g>
</svg>
