<svg id="Group_46" data-name="Group 46" xmlns="http://www.w3.org/2000/svg" xmlns:xlink="http://www.w3.org/1999/xlink" width="40" height="48.829" viewBox="0 0 40 48.829">
  <defs>
    <clipPath id="clip-path">
      <rect id="Rectangle_12" data-name="Rectangle 12" width="40" height="48.829" fill="#242424"/>
    </clipPath>
  </defs>
  <g id="Group_45" data-name="Group 45" clip-path="url(#clip-path)">
    <path id="Path_77" data-name="Path 77" d="M28.452,62.514a9.316,9.316,0,0,0-7.583-1.454A8.792,8.792,0,0,0,17.7,62.552a.634.634,0,0,0,.8.982,7.916,7.916,0,0,1,9.257.038.634.634,0,1,0,.7-1.058" transform="translate(-6.395 -22.265)" fill="#242424"/>
    <path id="Path_78" data-name="Path 78" d="M26.688,27.705a.626.626,0,0,0-.135-.068l-.14-1.683a2.01,2.01,0,0,0-1.29-1.723c-6.905-2.54-13.794-.861-16.436-.022h0a2.021,2.021,0,0,0-1.4,1.894l-.017,1.038a.582.582,0,0,0-.162.068A16.333,16.333,0,0,0,0,40.684,16.527,16.527,0,1,0,26.688,27.705M8.55,26.126a.753.753,0,0,1,.521-.708c2.519-.8,9.078-2.4,15.614,0a.739.739,0,0,1,.465.638L25.5,30.2a.753.753,0,0,1-.267.646A.741.741,0,0,1,24.56,31a30.947,30.947,0,0,0-15.122.089.775.775,0,0,1-.675-.142.736.736,0,0,1-.283-.6Zm7.977,29.817a15.277,15.277,0,0,1-15.26-15.26,15.06,15.06,0,0,1,5.972-12l-.027,1.645a2,2,0,0,0,.763,1.614,2.026,2.026,0,0,0,1.262.441,2.1,2.1,0,0,0,.511-.063,29.681,29.681,0,0,1,14.494-.091,1.991,1.991,0,0,0,1.8-.411,2.035,2.035,0,0,0,.713-1.72l-.061-.729a15.1,15.1,0,0,1,5.089,11.316,15.277,15.277,0,0,1-15.26,15.26" transform="translate(0 -8.382)" fill="#242424"/>
    <path id="Path_79" data-name="Path 79" d="M17.992,10.193a.634.634,0,1,0,.9.9,5.3,5.3,0,0,0,.565-6.428,2.329,2.329,0,0,1-.367-1.8A3.156,3.156,0,0,1,20.409,1.18a.634.634,0,0,0-.64-1.094,4.413,4.413,0,0,0-1.91,2.456A3.544,3.544,0,0,0,18.37,5.32a4.051,4.051,0,0,1-.378,4.873" transform="translate(-6.505 0)" fill="#242424"/>
    <path id="Path_80" data-name="Path 80" d="M24.679,10.193a.634.634,0,1,0,.9.9,5.3,5.3,0,0,0,.565-6.428,2.329,2.329,0,0,1-.367-1.8A3.159,3.159,0,0,1,27.1,1.18.634.634,0,0,0,26.457.086a4.408,4.408,0,0,0-1.91,2.456,3.539,3.539,0,0,0,.511,2.778,4.05,4.05,0,0,1-.378,4.873" transform="translate(-8.954 0)" fill="#242424"/>
    <path id="Path_81" data-name="Path 81" d="M31.925,10.193a.634.634,0,1,0,.9.9,5.3,5.3,0,0,0,.565-6.428,2.329,2.329,0,0,1-.367-1.8A3.156,3.156,0,0,1,34.342,1.18.634.634,0,0,0,33.7.086a4.413,4.413,0,0,0-1.91,2.456A3.544,3.544,0,0,0,32.3,5.32a4.051,4.051,0,0,1-.378,4.873" transform="translate(-11.607 0)" fill="#242424"/>
    <path id="Path_82" data-name="Path 82" d="M17.8,44.413a.634.634,0,1,0-1.243-.249c-.693,3.462-4.866,2.824-5.045,2.8a.634.634,0,0,0-.207,1.25,6.965,6.965,0,0,0,1.134.089c2.011,0,4.74-.794,5.36-3.886" transform="translate(-3.946 -15.988)" fill="#242424"/>
    <path id="Path_83" data-name="Path 83" d="M37.521,46.69c-4.263.609-5.033-1.89-5.067-2.009A.634.634,0,0,0,31.228,45c.009.034.844,3.048,5.031,3.048a10.124,10.124,0,0,0,1.441-.108.633.633,0,1,0-.179-1.254" transform="translate(-11.43 -16.192)" fill="#242424"/>
    <path id="Path_84" data-name="Path 84" d="M57.533,16.742V4.189a2.517,2.517,0,0,0-5.035,0V16.476a3.91,3.91,0,0,0-1.413,3.017,3.813,3.813,0,0,0,7.625,0,3.957,3.957,0,0,0-1.178-2.752M55.016,2.94a1.222,1.222,0,0,1,1.25,1.25V6.381h-2.5V4.189a1.223,1.223,0,0,1,1.25-1.25m-.118,19.1a2.518,2.518,0,0,1-2.545-2.545A2.652,2.652,0,0,1,53.5,17.3a.634.634,0,0,0,.266-.516v-1.6h1.486a.634.634,0,0,0,0-1.268H53.766V11.063h1.25a.634.634,0,0,0,0-1.268h-1.25V7.648h2.5v9.373a.635.635,0,0,0,.228.487,2.7,2.7,0,0,1,.949,1.985A2.518,2.518,0,0,1,54.9,22.039" transform="translate(-18.71 -0.613)" fill="#242424"/>
  </g>
</svg>
