<svg id="Group_1418" data-name="Group 1418" xmlns="http://www.w3.org/2000/svg" xmlns:xlink="http://www.w3.org/1999/xlink" width="35.474" height="35.491" viewBox="0 0 35.474 35.491">
  <defs>
    <clipPath id="clip-path">
      <rect id="Rectangle_979" data-name="Rectangle 979" width="35.474" height="35.491" transform="translate(0 0)" fill="none"/>
    </clipPath>
  </defs>
  <g id="Group_1417" data-name="Group 1417" clip-path="url(#clip-path)">
    <path id="Path_1250" data-name="Path 1250" d="M34.879.611a2.442,2.442,0,0,0-2.374-.5,16.562,16.562,0,0,0-3.881,1.83c-.392.363-6.4,6.123-7.578,7.258L1.537,5.326a.5.5,0,0,0-.415.1.5.5,0,0,0-.183.386V7.94a.5.5,0,0,0,.267.442l9.078,4.782,3.5,3.57L9.1,21.6l-.306.48L1.5,21.2a.482.482,0,0,0-.5.256l-.94,1.715a.5.5,0,0,0,.168.661l5.278,3.391L4.139,29.37a1.477,1.477,0,0,0,.035,1.857,1.238,1.238,0,0,0,.947.416,1.869,1.869,0,0,0,.96-.288l2.17-1.39,3.4,5.3a.5.5,0,0,0,.421.23.494.494,0,0,0,.24-.062l1.715-.939a.5.5,0,0,0,.256-.5l-.874-7.331.547-.35,4.67-4.5,3.579,3.5L26.989,34.4a.5.5,0,0,0,.442.267h2.124a.5.5,0,0,0,.491-.6L26.173,14.543l7.36-7.685a12.6,12.6,0,0,0,1.838-3.894A2.4,2.4,0,0,0,34.879.611M1.716,22.238l6.483.774L6.045,26.384,1.162,23.248Zm10.527,12.09L9.106,29.446l3.373-2.154.774,6.483ZM10.82,12.316,1.939,7.638V6.425L20.2,10.047l-5.777,5.916-3.481-3.554a.491.491,0,0,0-.124-.093M27.733,33.663l-4.678-8.88a.511.511,0,0,0-.092-.125l-3.556-3.48L25.324,15.4l3.622,18.263ZM34.4,2.711A11.917,11.917,0,0,1,32.81,6.167l-7.417,7.744L13.342,25.53l-7.8,4.984c-.005,0-.425.259-.627.039s.012-.56.052-.619l1.644-2.58.009-.009L9.47,22.878c.007-.009.006-.022.011-.032l.4-.635L21.55,10.1c.074-.07,7.334-7.039,7.753-7.427a16.992,16.992,0,0,1,3.469-1.6,1.449,1.449,0,0,1,1.4.251,1.436,1.436,0,0,1,.229,1.39" fill="#1a1818"/>
  </g>
</svg>
