<svg id="Group_44" data-name="Group 44" xmlns="http://www.w3.org/2000/svg" xmlns:xlink="http://www.w3.org/1999/xlink" width="49.992" height="64.118" viewBox="0 0 49.992 64.118">
  <defs>
    <clipPath id="clip-path">
      <rect id="Rectangle_11" data-name="Rectangle 11" width="49.992" height="64.118" fill="#242424"/>
    </clipPath>
  </defs>
  <g id="Group_43" data-name="Group 43" transform="translate(0 0)" clip-path="url(#clip-path)">
    <path id="Path_75" data-name="Path 75" d="M22.654,23.147a6.023,6.023,0,0,0,.528-2.471c0-3.054-2.224-5.539-4.956-5.539s-4.955,2.485-4.955,5.539a6.028,6.028,0,0,0,.535,2.489A14.9,14.9,0,0,0,3.231,30.27,22.673,22.673,0,0,0,.136,44.232a.814.814,0,0,0,.094.27,3.188,3.188,0,0,0,2.76,1.518,4.386,4.386,0,0,0,1.6-.332c.011,2.545.4,6.527,2.549,8.6,3.241,3.136,4.945,8.591,5.253,9.652A4.351,4.351,0,0,0,15.13,66.99a3.3,3.3,0,0,0,1,.154,3.773,3.773,0,0,0,2.166-.747,3.775,3.775,0,0,0,2.166.747,3.3,3.3,0,0,0,1-.154,4.35,4.35,0,0,0,2.739-3.045c.309-1.062,2.012-6.516,5.254-9.652,2.148-2.077,2.537-6.059,2.548-8.6a4.386,4.386,0,0,0,1.6.332,3.19,3.19,0,0,0,2.76-1.518.789.789,0,0,0,.092-.255,21.624,21.624,0,0,0-3.1-13.988,14.877,14.877,0,0,0-10.691-7.113m-4.428-6.41A3.693,3.693,0,0,1,21.6,20.675a3.693,3.693,0,0,1-3.374,3.939,3.1,3.1,0,0,1-2.251-1.027.785.785,0,0,0-.347-.43,4.311,4.311,0,0,1-.774-2.481,3.693,3.693,0,0,1,3.373-3.939M34.909,43.808a1.856,1.856,0,0,1-2.358.388,3.21,3.21,0,0,1-.638-.66c.011-.058.026-.131.044-.218.288-1.422,1.152-5.673-2.261-9.029-.008-1.091-.269-4.1-2.816-5.261a.79.79,0,0,0-1.047.4.8.8,0,0,0,.4,1.059c2.06.937,1.879,4.053,1.878,4.083a.806.806,0,0,0,.259.652C31.421,38,30.684,41.63,30.407,43c-.015.07-.028.133-.039.19a.914.914,0,0,0-.027.149,1.512,1.512,0,0,0-.023.246,1.218,1.218,0,0,0,.026.206c.1,1.251.4,7.037-1.994,9.351C24.819,56.555,23,62.363,22.673,63.494a2.812,2.812,0,0,1-1.69,1.967,1.968,1.968,0,0,1-1.714-.31l-.252-13.294a.8.8,0,0,0-.791-.785h-.015a.8.8,0,0,0-.776.816l.248,13.007a.743.743,0,0,0-.086.046,2.093,2.093,0,0,1-2,.521,2.813,2.813,0,0,1-1.69-1.967c-.328-1.131-2.146-6.941-5.677-10.357-2.393-2.314-2.09-8.1-1.994-9.351a1.218,1.218,0,0,0,.026-.206,1.512,1.512,0,0,0-.023-.246.782.782,0,0,0-.027-.149L6.176,43C5.9,41.63,5.162,38,8.214,35.223a.813.813,0,0,0,.26-.65c0-.032-.182-3.148,1.877-4.085a.8.8,0,0,0,.4-1.059.788.788,0,0,0-1.046-.4c-2.548,1.16-2.809,4.169-2.817,5.261-3.412,3.356-2.548,7.607-2.26,9.029.018.09.034.164.044.211v.007a3.222,3.222,0,0,1-.638.66,1.857,1.857,0,0,1-2.355-.381A21.614,21.614,0,0,1,4.584,31.1,13.292,13.292,0,0,1,14.79,24.657a4.571,4.571,0,0,0,6.881-.009A13.275,13.275,0,0,1,32,31.1a20.543,20.543,0,0,1,2.911,12.71" transform="translate(0 -3.026)" fill="#242424"/>
    <path id="Path_76" data-name="Path 76" d="M55.339,5.9a20.111,20.111,0,0,0-28.46-.01.807.807,0,0,0,0,1.131l7.548,7.635a.785.785,0,0,0,1.119,0A7.843,7.843,0,0,1,41.1,12.393,7.631,7.631,0,0,1,46.66,14.66a.784.784,0,0,0,1.119,0l7.549-7.635A.806.806,0,0,0,55.339,5.9M47.2,12.986a9.1,9.1,0,0,0-5.3-2.161v-4.5a.791.791,0,1,0-1.582,0v4.5a9.452,9.452,0,0,0-5.3,2.161L28.569,6.472a18.584,18.584,0,0,1,25.077-.009Z" transform="translate(-5.568 0)" fill="#242424"/>
  </g>
</svg>
