<svg id="Group_4483" data-name="Group 4483" xmlns="http://www.w3.org/2000/svg" xmlns:xlink="http://www.w3.org/1999/xlink" width="50" height="36.5" viewBox="0 0 50 36.5">
  <defs>
    <clipPath id="clip-path">
      <rect id="Rectangle_1756" data-name="Rectangle 1756" width="50" height="36.5" fill="none"/>
    </clipPath>
  </defs>
  <g id="Group_4482" data-name="Group 4482" transform="translate(0 0)" clip-path="url(#clip-path)">
    <path id="Path_1308" data-name="Path 1308" d="M10.779,35.056h3.738A3.863,3.863,0,0,0,18.375,31.2V10.5a3.863,3.863,0,0,0-3.858-3.858H10.779A3.863,3.863,0,0,0,6.921,10.5V31.2a3.863,3.863,0,0,0,3.858,3.858M8.373,10.5A2.409,2.409,0,0,1,10.779,8.1h3.738A2.409,2.409,0,0,1,16.923,10.5V31.2A2.41,2.41,0,0,1,14.517,33.6H10.779A2.409,2.409,0,0,1,8.373,31.2Z" transform="translate(-1.898 -1.823)" fill="#1a1818"/>
    <path id="Path_1309" data-name="Path 1309" d="M30.222,17.03a3.389,3.389,0,0,0-3.384,3.385v14.1A3.388,3.388,0,0,0,30.222,37.9h4.685a3.388,3.388,0,0,0,3.384-3.384v-14.1a3.389,3.389,0,0,0-3.384-3.385Zm6.618,3.385v14.1a1.935,1.935,0,0,1-1.933,1.933H30.222a1.935,1.935,0,0,1-1.933-1.933v-14.1a1.935,1.935,0,0,1,1.933-1.933h4.685a1.935,1.935,0,0,1,1.933,1.933" transform="translate(-7.36 -4.67)" fill="#1a1818"/>
    <path id="Path_1310" data-name="Path 1310" d="M49.637,26.19a2.885,2.885,0,0,0-2.882,2.882v8.462a2.885,2.885,0,0,0,2.882,2.881h5.69a2.885,2.885,0,0,0,2.882-2.881V29.072a2.885,2.885,0,0,0-2.882-2.882Zm7.12,2.882v8.462a1.432,1.432,0,0,1-1.43,1.43h-5.69a1.432,1.432,0,0,1-1.43-1.43V29.072a1.432,1.432,0,0,1,1.43-1.43h5.69a1.432,1.432,0,0,1,1.43,1.43" transform="translate(-12.822 -7.182)" fill="#1a1818"/>
    <path id="Path_1311" data-name="Path 1311" d="M49.274,48.292H.726a.726.726,0,0,0,0,1.452H49.274a.726.726,0,0,0,0-1.452" transform="translate(0 -13.244)" fill="#1a1818"/>
    <path id="Path_1312" data-name="Path 1312" d="M14.679,1.4l35.89,14.36-3.3,1.415a.726.726,0,1,0,.572,1.334l5.58-2.391-2.391-5.58a.726.726,0,1,0-1.334.571l1.414,3.3L15.218.053A.725.725,0,1,0,14.679,1.4" transform="translate(-3.9 0)" fill="#1a1818"/>
  </g>
</svg>
