<svg id="Group_52" data-name="Group 52" xmlns="http://www.w3.org/2000/svg" xmlns:xlink="http://www.w3.org/1999/xlink" width="53.6" height="57.25" viewBox="0 0 53.6 57.25">
  <defs>
    <clipPath id="clip-path">
      <rect id="Rectangle_15" data-name="Rectangle 15" width="53.6" height="57.25" fill="#242424"/>
    </clipPath>
  </defs>
  <g id="Group_51" data-name="Group 51" transform="translate(0 0)" clip-path="url(#clip-path)">
    <path id="Path_93" data-name="Path 93" d="M70,37.84a2.9,2.9,0,0,0-1.243-1.922,3.054,3.054,0,0,0-1.371-.517,2.953,2.953,0,0,0-5.906.037.733.733,0,0,0,1.465,0,1.488,1.488,0,1,1,2.976,0,1.854,1.854,0,0,1-.024.379.733.733,0,0,0,.656,1.061h.1a.739.739,0,0,0,.12-.01,1.6,1.6,0,0,1,1.156.26,1.443,1.443,0,0,1,.624.954,1.6,1.6,0,0,1-.26,1.156,1.443,1.443,0,0,1-.954.625.728.728,0,0,0-.111.028.675.675,0,0,1-.446,0,.733.733,0,0,0-.963.7,1.015,1.015,0,0,0,.116.456,1.545,1.545,0,0,1-1.219,1.748,1.605,1.605,0,0,1-1.157-.261,1.441,1.441,0,0,1-.625-.953.732.732,0,1,0-1.445.24,2.891,2.891,0,0,0,1.243,1.922,3.051,3.051,0,0,0,1.725.538,2.948,2.948,0,0,0,2.957-2.922,2.173,2.173,0,0,0,.221-.056A2.893,2.893,0,0,0,69.5,40.064,3.031,3.031,0,0,0,70,37.84" transform="translate(-16.438 -8.685)" fill="#242424"/>
    <path id="Path_94" data-name="Path 94" d="M58.361,37.746l-4.646.59a.733.733,0,0,0,.092,1.459.8.8,0,0,0,.093-.006l4.646-.59a.733.733,0,0,0-.185-1.454" transform="translate(-14.191 -10.091)" fill="#242424"/>
    <path id="Path_95" data-name="Path 95" d="M58.572,41.382l-4.646-.762a.733.733,0,0,0-.237,1.447l4.646.762a.819.819,0,0,0,.119.009.733.733,0,0,0,.118-1.456" transform="translate(-14.191 -10.858)" fill="#242424"/>
    <path id="Path_96" data-name="Path 96" d="M7.828,40.546a.732.732,0,0,0-.733.733,1.488,1.488,0,0,1-2.975,0,1.854,1.854,0,0,1,.024-.379.733.733,0,0,0-.656-1.06h-.1a.739.739,0,0,0-.12.01,1.548,1.548,0,0,1-1.78-1.215,1.6,1.6,0,0,1,.259-1.156,1.446,1.446,0,0,1,.954-.624.872.872,0,0,0,.111-.027.671.671,0,0,1,.446,0,.732.732,0,0,0,.964-.695,1.024,1.024,0,0,0-.116-.456,1.609,1.609,0,0,1,.265-1.125,1.443,1.443,0,0,1,.954-.624,1.6,1.6,0,0,1,1.156.26,1.444,1.444,0,0,1,.625.954A.732.732,0,1,0,8.55,34.9,2.891,2.891,0,0,0,7.308,32.98a3.038,3.038,0,0,0-2.224-.5,2.893,2.893,0,0,0-1.922,1.243,3.052,3.052,0,0,0-.537,1.639,1.97,1.97,0,0,0-.22.056A2.891,2.891,0,0,0,.538,36.652a3.036,3.036,0,0,0-.5,2.224,3.016,3.016,0,0,0,2.613,2.437,2.953,2.953,0,0,0,5.906-.034.732.732,0,0,0-.733-.733" transform="translate(0 -8.674)" fill="#242424"/>
    <path id="Path_97" data-name="Path 97" d="M17.8,41.115a.733.733,0,0,0-.819-.634l-4.788.608a.733.733,0,0,0,.092,1.459.815.815,0,0,0,.093-.006l4.788-.608a.733.733,0,0,0,.634-.819" transform="translate(-3.089 -10.822)" fill="#242424"/>
    <path id="Path_98" data-name="Path 98" d="M12.392,37.451a.733.733,0,1,0-.213,1.45l4.788.706a.672.672,0,0,0,.108.008.732.732,0,0,0,.105-1.457Z" transform="translate(-3.089 -10.011)" fill="#242424"/>
    <path id="Path_99" data-name="Path 99" d="M34.978,7.78l3.027-.3a.217.217,0,0,1,.2.2L36.39,13.835c-.1.2.2.3.3.1L41.638,5.56c.1-.1,0-.2-.1-.2l-3.632.1a.217.217,0,0,1-.2-.2L38.913.211a.217.217,0,0,0-.4-.1L34.776,7.578c-.1.1,0,.2.2.2" transform="translate(-9.288 0)" fill="#242424"/>
    <path id="Path_100" data-name="Path 100" d="M33.164,45.97A10.117,10.117,0,1,0,23.046,35.852,10.129,10.129,0,0,0,33.164,45.97m0-18.77a8.652,8.652,0,1,1-8.653,8.652A8.662,8.662,0,0,1,33.164,27.2" transform="translate(-6.162 -6.881)" fill="#242424"/>
    <path id="Path_101" data-name="Path 101" d="M36.753,56.032h-11a10.433,10.433,0,0,0-10.42,10.421V71.5a.733.733,0,0,0,1.465,0V66.453A8.965,8.965,0,0,1,25.753,57.5h11a8.966,8.966,0,0,1,8.956,8.956V71.5a.733.733,0,1,0,1.465,0V66.453A10.433,10.433,0,0,0,36.753,56.032" transform="translate(-4.1 -14.982)" fill="#242424"/>
    <path id="Path_102" data-name="Path 102" d="M25.708,66.088a.732.732,0,0,0-.733.733v7.367a.733.733,0,1,0,1.465,0V66.821a.732.732,0,0,0-.733-.733" transform="translate(-6.678 -17.67)" fill="#242424"/>
    <path id="Path_103" data-name="Path 103" d="M47.885,66.088a.732.732,0,0,0-.733.733v7.367a.733.733,0,1,0,1.465,0V66.821a.732.732,0,0,0-.733-.733" transform="translate(-12.607 -17.67)" fill="#242424"/>
    <path id="Path_104" data-name="Path 104" d="M14.4,13.574a1.574,1.574,0,0,1,1.312.605,2.139,2.139,0,0,1,.4,1.01,7.654,7.654,0,0,1-.1,1.412,7.806,7.806,0,0,0,.1,2.221,1.513,1.513,0,0,0,.706.908l1.211-1.11c-.3-.4-.832-.757-.5-2.624a5.783,5.783,0,0,0,.1-1.211,4.434,4.434,0,0,0-.2-1.009,2.678,2.678,0,0,0-.605-1.01,2.649,2.649,0,0,0-2.22-.908,4.635,4.635,0,0,0-4.339,3.33,5.42,5.42,0,0,0-.4,2.22l1.514-.1A3.685,3.685,0,0,1,14.4,13.574" transform="translate(-2.636 -3.17)" fill="#242424"/>
    <path id="Path_105" data-name="Path 105" d="M21.319,25.108a.762.762,0,0,0,.706.4,1.342,1.342,0,0,0,.807-.3.762.762,0,0,0,.4-.706,1.146,1.146,0,0,0-.3-.807.761.761,0,0,0-.706-.4,1.144,1.144,0,0,0-.807.3.762.762,0,0,0-.4.706,1.148,1.148,0,0,0,.3.807" transform="translate(-5.619 -6.228)" fill="#242424"/>
    <path id="Path_106" data-name="Path 106" d="M59.853,17.743l-1.009-1.615-6.56,4.743.706,1.01Z" transform="translate(-13.98 -4.312)" fill="#242424"/>
    <path id="Path_107" data-name="Path 107" d="M49.183,25.925a1.086,1.086,0,0,0,.807-.2,1.169,1.169,0,0,0,.5-.706,1.213,1.213,0,0,0-.2-.807,1.165,1.165,0,0,0-.706-.5,1.089,1.089,0,0,0-.807.2,1.171,1.171,0,0,0-.5.706.838.838,0,0,0,.2.807,1.169,1.169,0,0,0,.706.5" transform="translate(-12.897 -6.338)" fill="#242424"/>
  </g>
</svg>
