<svg xmlns="http://www.w3.org/2000/svg" xmlns:xlink="http://www.w3.org/1999/xlink" width="40" height="34.026" viewBox="0 0 40 34.026">
  <defs>
    <clipPath id="clip-path">
      <rect id="Rectangle_9" data-name="Rectangle 9" width="40" height="34.026" fill="#242424"/>
    </clipPath>
  </defs>
  <g id="Group_40" data-name="Group 40" transform="translate(0 0)">
    <g id="Group_39" data-name="Group 39" transform="translate(0 0)" clip-path="url(#clip-path)">
      <path id="Path_54" data-name="Path 54" d="M13.783,26.586a1.108,1.108,0,0,0-.954.559L9.714,33.206,6.272,27.064a1.111,1.111,0,0,0-.964-.563h0C5.254,26.5,0,26.672,0,31.732V35.8a.405.405,0,1,0,.811,0V31.732c0-4.261,4.33-4.416,4.5-4.421a.325.325,0,0,1,.239.132l3.821,6.818a.39.39,0,0,0,.36.207.405.405,0,0,0,.354-.22l3.461-6.735a.339.339,0,0,1,.238-.116c.176-.006,4.6-.014,4.668,4.336V35.8a.405.405,0,1,0,.811,0v-4.07a4.915,4.915,0,0,0-1.416-3.607,6.262,6.262,0,0,0-4.069-1.534" transform="translate(0 -15.755)" fill="#242424"/>
      <path id="Path_55" data-name="Path 55" d="M66.824,63.136H58.4a4.752,4.752,0,0,0-4.951,4.513v3.508a.405.405,0,1,0,.811,0V67.649a3.944,3.944,0,0,1,4.14-3.7h8.427a3.944,3.944,0,0,1,4.14,3.7v3.508a.405.405,0,0,0,.811,0V67.649a4.752,4.752,0,0,0-4.951-4.513" transform="translate(-31.775 -37.536)" fill="#242424"/>
      <path id="Path_56" data-name="Path 56" d="M53.322,11l-.587-.216a.856.856,0,0,0-.678-.032.88.88,0,0,0-.424.514c-.066.165-.115.3-.165.428s-.092.248-.162.424a.836.836,0,0,0,.35.977.418.418,0,0,0,.077.04c.027.011,2.717,1.074,4.122,1.587a.756.756,0,0,0,.378.1.7.7,0,0,0,.185-.025.819.819,0,0,0,.463-.35.4.4,0,0,0,.04-.079c.011-.028,1.09-2.818,1.645-4.116a.806.806,0,0,0-.463-1.13L57.333,8.8a.865.865,0,0,0-.665-.039.889.889,0,0,0-.444.541c-.114.336-.236.693-.342.992a5.337,5.337,0,0,0-.715-.949,7.805,7.805,0,0,0-4.6-2.418.774.774,0,0,0-.92.523.475.475,0,0,0-.015.063c0,.025-.1.608-.133,1a.754.754,0,0,0,.736.871,5.007,5.007,0,0,1,2.423.912,3.536,3.536,0,0,1,.665.7m2.863,3.028h0v0M50.306,8.582V8.574c.022-.271.084-.676.11-.845h0a7.025,7.025,0,0,1,4.17,2.187,5.752,5.752,0,0,1,.716.987c.119.189.232.369.341.521a.406.406,0,0,0,.617.051c.076-.076.131-.131.723-1.888.006-.016.012-.03.017-.041l.025.009.741.308a.43.43,0,0,1,.069.041l0,.011c-.512,1.194-1.435,3.568-1.63,4.07l-.03-.012c-1.28-.466-3.713-1.424-4.091-1.573-.007-.006-.009-.009-.012,0h0c.064-.16.112-.288.16-.416s.095-.253.159-.412c.006-.015.012-.029.017-.041l.041.015,1.195.439.447.192a.406.406,0,0,0,.53-.538,5.211,5.211,0,0,0-1.466-1.975,5.8,5.8,0,0,0-2.82-1.073l-.023,0" transform="translate(-29.426 -4.106)" fill="#242424"/>
      <path id="Path_57" data-name="Path 57" d="M17.963,67.512a4.987,4.987,0,0,1-2.423-.912,3.5,3.5,0,0,1-.665-.7l.586.216a.748.748,0,0,0,1.1-.482c.064-.161.112-.29.161-.418s.094-.253.167-.434a.837.837,0,0,0-.352-.977.377.377,0,0,0-.076-.039c-.027-.011-2.717-1.074-4.122-1.586a.735.735,0,0,0-.563-.081.822.822,0,0,0-.463.35.4.4,0,0,0-.041.079c-.011.028-1.09,2.818-1.645,4.116a.765.765,0,0,0-.016.7.99.99,0,0,0,.478.433l.771.322a.76.76,0,0,0,1.11-.5c.114-.337.236-.694.342-.993a5.362,5.362,0,0,0,.715.949,7.807,7.807,0,0,0,4.6,2.418.705.705,0,0,0,.184.024.787.787,0,0,0,.735-.549.461.461,0,0,0,.015-.062c0-.024.1-.608.133-1a.755.755,0,0,0-.736-.871M12.01,62.876h0v0m5.879,5.452c-.022.271-.084.676-.111.845h0a7.025,7.025,0,0,1-4.17-2.188A5.717,5.717,0,0,1,12.893,66c-.119-.19-.233-.37-.342-.522a.4.4,0,0,0-.3-.169h-.033a.4.4,0,0,0-.287.12c-.076.076-.131.131-.722,1.887-.006.016-.012.03-.017.041l-.025-.009-.74-.308A.419.419,0,0,1,10.36,67l0-.011c.512-1.193,1.435-3.567,1.629-4.07l.031.013c1.281.466,3.714,1.424,4.091,1.573.006.005.009.008.012,0h0c-.065.163-.114.295-.164.426s-.093.248-.154.4l-.017.042-.041-.016-1.194-.439-.447-.191a.405.405,0,0,0-.53.538,5.211,5.211,0,0,0,1.466,1.974,5.8,5.8,0,0,0,2.821,1.073l.023,0v.008" transform="translate(-5.67 -36.907)" fill="#242424"/>
      <path id="Path_58" data-name="Path 58" d="M16.124,9.278a4.639,4.639,0,1,0-4.639-4.639,4.644,4.644,0,0,0,4.639,4.639m0-8.467A3.828,3.828,0,1,1,12.3,4.639,3.832,3.832,0,0,1,16.124.811" transform="translate(-6.828 0)" fill="#242424"/>
      <path id="Path_59" data-name="Path 59" d="M64.608,40.746a4.639,4.639,0,1,0,4.639-4.639,4.644,4.644,0,0,0-4.639,4.639m4.639-3.828a3.828,3.828,0,1,1-3.828,3.828,3.832,3.832,0,0,1,3.828-3.828" transform="translate(-38.411 -21.466)" fill="#242424"/>
      <path id="Path_60" data-name="Path 60" d="M21.353,26.332l-1.206,1.206a.406.406,0,0,0-.094.427L21.26,31.24a.405.405,0,0,0,.761,0l1.206-3.276a.406.406,0,0,0-.094-.427l-1.206-1.206a.405.405,0,0,0-.573,0m.287,3.595-.736-2,.736-.736.736.736Z" transform="translate(-11.907 -15.584)" fill="#242424"/>
      <path id="Path_61" data-name="Path 61" d="M35.158,39.176H32.082a.405.405,0,1,0,0,.811h3.076a.405.405,0,1,0,0-.811" transform="translate(-18.833 -23.291)" fill="#242424"/>
    </g>
  </g>
</svg>
