<svg id="Group_50" data-name="Group 50" xmlns="http://www.w3.org/2000/svg" xmlns:xlink="http://www.w3.org/1999/xlink" width="50.563" height="56.014" viewBox="0 0 50.563 56.014">
  <defs>
    <clipPath id="clip-path">
      <rect id="Rectangle_14" data-name="Rectangle 14" width="50.563" height="56.014" fill="#242424"/>
    </clipPath>
  </defs>
  <g id="Group_49" data-name="Group 49" transform="translate(0 0)" clip-path="url(#clip-path)">
    <path id="Path_89" data-name="Path 89" d="M17.581,26.572A14.574,14.574,0,0,0,5.653,39.534a18.538,18.538,0,0,1-1.821,7.4.739.739,0,0,0-.036.09c-.054.162-.108.3-.163.431-.065.162-.129.323-.184.49a2.542,2.542,0,0,0,.043,2,2.515,2.515,0,0,0,1.572,1.293,6.119,6.119,0,0,1,1.259.414.768.768,0,0,1,.173.157c.118.762.235,1.5.353,2.228s.236,1.48.355,2.25a3.506,3.506,0,0,0,3.626,3.159h4.388a1.338,1.338,0,0,1,1.347,1.388.788.788,0,0,0,.786.746.413.413,0,0,0,.044,0,.788.788,0,0,0,.744-.831,2.923,2.923,0,0,0-2.922-2.88H10.829a1.967,1.967,0,0,1-2.067-1.822c-.118-.772-.237-1.515-.357-2.258s-.233-1.455-.349-2.211a1.939,1.939,0,0,0-1.026-1.335A6.905,6.905,0,0,0,5.5,49.73a.939.939,0,0,1-.588-.46,1.011,1.011,0,0,1,.02-.8c.054-.162.108-.3.163-.431s.118-.3.177-.471a20.3,20.3,0,0,0,1.952-7.959c.326-5.431,5.084-10.583,10.6-11.483a12.861,12.861,0,0,1,15,10.281,12.638,12.638,0,0,1-1.888,9.6,7.482,7.482,0,0,0-1.326,4.428,18.44,18.44,0,0,0,.876,8.157.789.789,0,1,0,1.481-.546,17.146,17.146,0,0,1-.781-7.555,5.972,5.972,0,0,1,1.057-3.6A14.18,14.18,0,0,0,34.374,38.1,14.581,14.581,0,0,0,17.581,26.572" transform="translate(-0.689 -5.571)" fill="#242424"/>
    <path id="Path_90" data-name="Path 90" d="M53.682,25.415l6.02-2.038c.185,0,.092-.37-.185-.278l-10.094.926c-.185,0-.278.185-.185.278l2.223,2.964a.177.177,0,0,1-.093.278l-7.5,2.13c-.185.093-.185.371.092.371L55.9,29.675c.185,0,.278-.185.185-.278l-2.5-3.7a.177.177,0,0,1,.092-.278" transform="translate(-9.235 -4.875)" fill="#242424"/>
    <path id="Path_91" data-name="Path 91" d="M26.964,9.5l3.7-.371c.185,0,.278.093.185.278l-2.223,7.5c-.092.185.278.37.371.185l6.02-10.279c.092-.092,0-.278-.185-.278l-4.445.093a.192.192,0,0,1-.185-.278L31.686.234c.093-.185-.278-.37-.37-.092L26.778,9.218c-.092.185,0,.278.185.278" transform="translate(-5.647 0)" fill="#242424"/>
    <path id="Path_92" data-name="Path 92" d="M4.723,18.657,7.5,24.214c.092.185.371.092.278-.093L5.741,14.953a.177.177,0,0,0-.278-.092l-2.5,2.408a.174.174,0,0,1-.278,0l-2.5-4.353c0-.092-.185,0-.185.185l2.222,7.686a.177.177,0,0,0,.278.093l1.945-2.223a.174.174,0,0,1,.278,0" transform="translate(0 -2.72)" fill="#242424"/>
  </g>
</svg>
