<svg xmlns="http://www.w3.org/2000/svg" xmlns:xlink="http://www.w3.org/1999/xlink" width="15.219" height="14.474" viewBox="0 0 15.219 14.474">
  <defs>
    <clipPath id="clip-path">
      <rect id="Rectangle_2943" data-name="Rectangle 2943" width="15.219" height="14.474" transform="translate(0 0)" fill="none"/>
    </clipPath>
  </defs>
  <g id="Group_5889" data-name="Group 5889" transform="translate(0 0)">
    <g id="Group_5888" data-name="Group 5888" clip-path="url(#clip-path)">
      <path id="Path_5153" data-name="Path 5153" d="M7.692,14.474A7.728,7.728,0,0,1,.438,9.386,7.985,7.985,0,0,1,2.38,1.14a.441.441,0,0,1,.73.431,7.377,7.377,0,0,0,.226,4.566A6.515,6.515,0,0,0,6.363,9.58a6.943,6.943,0,0,0,7.852-.567.465.465,0,0,1,.7.542,7.648,7.648,0,0,1-6.84,4.909c-.129.007-.258.01-.385.01M2.243,2.333A7.281,7.281,0,0,0,1.1,9.152a7.041,7.041,0,0,0,6.945,4.613,6.96,6.96,0,0,0,5.9-3.738,7.572,7.572,0,0,1-7.909.17A7.192,7.192,0,0,1,2.687,6.4a7.906,7.906,0,0,1-.444-4.064M14.417,9.3h0Z"/>
      <path id="Path_5154" data-name="Path 5154" d="M6.89,5.342c-.238,0-.372-.366-.372-.366S6.2,3.916,6.15,3.787A.5.5,0,0,0,5.8,3.455c-.319-.1-.942-.287-1.243-.378,0,0-.358-.087-.358-.383s.356-.39.356-.39.98-.292,1.246-.376a.518.518,0,0,0,.362-.366C6.253,1.287,6.419.621,6.5.3a.506.506,0,0,1,.4-.3A.406.406,0,0,1,7.27.272s.335,1.035.383,1.207a.656.656,0,0,0,.505.5c.277.077.919.247,1.2.323,0,0,.468.1.483.356s-.472.4-.472.4c-.337.1-1.2.365-1.355.419a.468.468,0,0,0-.311.315c-.1.3-.307.91-.409,1.209,0,0-.167.35-.406.35M5.4,2.692c.145.044.278.086.383.119a1.483,1.483,0,0,1,1,.954c.023.062.077.234.143.447.055-.164.106-.315.144-.43a1.449,1.449,0,0,1,.925-.945h0c.065-.023.233-.076.444-.142L8.23,2.638A1.694,1.694,0,0,1,6.994,1.416c-.014-.05-.04-.138-.075-.246-.04.151-.079.284-.109.379A1.512,1.512,0,0,1,5.788,2.573L5.4,2.692m-.644-.286.006,0-.006,0"/>
      <path id="Path_5155" data-name="Path 5155" d="M12.87,7.754a.4.4,0,0,1-.373-.281s-.264-.867-.3-.972a.346.346,0,0,0-.243-.232l-1.016-.308s-.373-.1-.373-.381.372-.373.372-.373.8-.239,1.018-.308a.359.359,0,0,0,.254-.258c.072-.224.206-.766.27-1.025a.431.431,0,0,1,.386-.328.391.391,0,0,1,.37.3c.088.268.274.842.313.983a.473.473,0,0,0,.368.36c.227.064.751.2.982.264,0,0,.337.1.322.38-.015.3-.425.391-.425.391-.32.1-.881.269-.989.308h0a.319.319,0,0,0-.215.216c-.08.246-.251.745-.335.989a.4.4,0,0,1-.382.269M11.682,5.58l.083.026A1.606,1.606,0,0,1,12.84,6.632c.011.032.03.09.055.167.017-.052.034-.1.047-.146a1.563,1.563,0,0,1,1-1.019l.142-.046a1.791,1.791,0,0,1-1.194-1.2c-.007.022-.014.043-.02.063a1.625,1.625,0,0,1-1.1,1.1c-.025.009-.054.016-.086.027m2,.37h0Z"/>
      <path id="Path_5156" data-name="Path 5156" d="M5.7,5.153a.846.846,0,0,0-.6-.243H5.095a.837.837,0,0,0-.831.835.82.82,0,0,0,.244.591A.829.829,0,0,0,5.1,6.58a.852.852,0,0,0,.61-.247.814.814,0,0,0,.239-.589A.828.828,0,0,0,5.7,5.153m-.593.973A.392.392,0,1,1,5.5,5.734a.392.392,0,0,1-.392.392"/>
      <path id="Path_5157" data-name="Path 5157" d="M7.326,7.8H7.319a.648.648,0,0,0-.652.653.67.67,0,0,0,.2.476.652.652,0,0,0,.456.185h.022A.657.657,0,0,0,7.326,7.8m.013.812a.148.148,0,1,1,.147-.148.148.148,0,0,1-.147.148"/>
    </g>
  </g>
</svg>
