<svg xmlns="http://www.w3.org/2000/svg" xmlns:xlink="http://www.w3.org/1999/xlink" width="20.446" height="20.445" viewBox="0 0 20.446 20.445">
  <defs>
    <clipPath id="clip-path">
      <rect id="Rectangle_1671" data-name="Rectangle 1671" width="20.446" height="20.445" transform="translate(0 0)" fill="none"/>
    </clipPath>
  </defs>
  <g id="Group_4368" data-name="Group 4368" transform="translate(0 0)">
    <g id="Group_4367" data-name="Group 4367" clip-path="url(#clip-path)">
      <path id="Path_5085" data-name="Path 5085" d="M5.513.5c.072.021.146.04.216.065a1.079,1.079,0,0,1,.714,1.06,11.343,11.343,0,0,0,.238,2.362c.1.469.225.934.361,1.394a1.117,1.117,0,0,1-.291,1.2Q5.634,7.695,4.518,8.818a1.064,1.064,0,0,1-.123.091c.227.4.43.775.655,1.139a16.21,16.21,0,0,0,6.368,5.928.149.149,0,0,0,.213-.033c.739-.747,1.485-1.487,2.224-2.234a1.113,1.113,0,0,1,1.225-.3A12.294,12.294,0,0,0,18.824,14a1.063,1.063,0,0,1,1.078.79,1.209,1.209,0,0,1,.041.312q0,1.866,0,3.734a1.074,1.074,0,0,1-1.115,1.106A17.913,17.913,0,0,1,9.716,17.5,18.17,18.17,0,0,1,1.237,6.739,16.883,16.883,0,0,1,.572,3.178c-.021-.264-.034-.53-.052-.8,0-.045-.014-.091-.02-.136V1.412c.009-.027.021-.053.028-.08A1.073,1.073,0,0,1,1.153.59c.083-.037.172-.061.258-.09Z" fill="none" stroke="#000" stroke-miterlimit="10" stroke-width="1"/>
    </g>
  </g>
</svg>
