<svg xmlns="http://www.w3.org/2000/svg" xmlns:xlink="http://www.w3.org/1999/xlink" width="25" height="25" viewBox="0 0 25 25">
  <defs>
    <clipPath id="clip-path">
      <rect id="Rectangle_2945" data-name="Rectangle 2945" width="25" height="25" fill="none"/>
    </clipPath>
  </defs>
  <g id="Group_5895" data-name="Group 5895" transform="translate(0 0)">
    <g id="Group_5894" data-name="Group 5894" transform="translate(0 0)" clip-path="url(#clip-path)">
      <path id="Path_5161" data-name="Path 5161" d="M8.154,10.695a3.38,3.38,0,0,0,2.64-1.264,3.35,3.35,0,0,0,2.626,1.264,3.3,3.3,0,0,0,3.35-3.228,3.3,3.3,0,0,0-3.35-3.228A3.365,3.365,0,0,0,10.8,5.506,3.382,3.382,0,0,0,8.154,4.239,3.294,3.294,0,0,0,4.8,7.467a3.294,3.294,0,0,0,3.349,3.228m5.265-5.569a2.408,2.408,0,0,1,2.463,2.341,2.408,2.408,0,0,1-2.463,2.342,2.477,2.477,0,0,1-2.112-1.135c-.01-.017-.031-.016-.043-.03a3.014,3.014,0,0,0,.011-2.319,2.479,2.479,0,0,1,2.143-1.2m-5.265,0a2.408,2.408,0,0,1,2.463,2.341A2.408,2.408,0,0,1,8.154,9.809,2.408,2.408,0,0,1,5.691,7.467,2.408,2.408,0,0,1,8.154,5.126" transform="translate(2.037 1.797)"/>
      <path id="Path_5162" data-name="Path 5162" d="M15.471,9.6H6.918a3.316,3.316,0,0,0-3.389,3.236l.027,1.627a.481.481,0,0,0,.451.436.445.445,0,0,0,.436-.451l-.028-1.62a2.428,2.428,0,0,1,2.5-2.341H11.09a2.428,2.428,0,0,1,2.5,2.341v1.627a.443.443,0,1,0,.886,0V12.825a3.14,3.14,0,0,0-1.069-2.341h2.062a2.242,2.242,0,0,1,2.123,2.341v1.627a.444.444,0,1,0,.887,0V12.825A3.128,3.128,0,0,0,15.471,9.6" transform="translate(1.496 4.068)"/>
    </g>
  </g>
</svg>
