<svg xmlns="http://www.w3.org/2000/svg" xmlns:xlink="http://www.w3.org/1999/xlink" width="25" height="25" viewBox="0 0 25 25">
  <defs>
    <clipPath id="clip-path">
      <rect id="Rectangle_2946" data-name="Rectangle 2946" width="25" height="25" fill="none"/>
    </clipPath>
  </defs>
  <g id="Group_5897" data-name="Group 5897" transform="translate(0 0)">
    <g id="Group_5896" data-name="Group 5896" transform="translate(0 0)" clip-path="url(#clip-path)">
      <path id="Path_5163" data-name="Path 5163" d="M9.481,18.087H6.921a2.781,2.781,0,0,1-2.767-2.218,2.925,2.925,0,0,1-.061-.634l0-5.106a2.8,2.8,0,0,1,.944-2.139L8.82,4.526a2.832,2.832,0,0,1,1.561-.756,2.692,2.692,0,0,1,2.187.636c.449.393.888.8,1.327,1.2L15.081,6.7c.453.416.907.833,1.365,1.246a2.865,2.865,0,0,1,.974,1.831,2.811,2.811,0,0,1,.017.347v1.753q0,1.679,0,3.356a2.825,2.825,0,0,1-1.875,2.7,2.9,2.9,0,0,1-.978.159ZM10.8,4.683a2.308,2.308,0,0,0-.293.02,1.886,1.886,0,0,0-1.048.515L5.669,8.684a1.866,1.866,0,0,0-.638,1.444v5.1a1.969,1.969,0,0,0,.04.431,1.86,1.86,0,0,0,1.85,1.482h7.666a2.009,2.009,0,0,0,.668-.107,1.889,1.889,0,0,0,1.246-1.8c-.007-1.122-.007-2.243-.006-3.365V10.121a2.172,2.172,0,0,0-.011-.236,1.929,1.929,0,0,0-.669-1.243q-.69-.622-1.373-1.252L13.257,6.3c-.433-.4-.866-.8-1.309-1.185a1.69,1.69,0,0,0-1.15-.433" transform="translate(1.734 1.586)"/>
      <path id="Path_5164" data-name="Path 5164" d="M9.334,10.864c.47,0,.941,0,1.411,0a.456.456,0,0,1,.451.342.465.465,0,0,1-.467.588H8.2c-.1,0-.189,0-.283,0a.469.469,0,0,1-.454-.466.46.46,0,0,1,.453-.464C8.387,10.861,8.86,10.864,9.334,10.864Z" transform="translate(3.162 4.604)"/>
    </g>
  </g>
</svg>
