<svg xmlns="http://www.w3.org/2000/svg" xmlns:xlink="http://www.w3.org/1999/xlink" width="9.237" height="10.624" viewBox="0 0 9.237 10.624">
  <defs>
    <clipPath id="clip-path">
      <rect id="Rectangle_1744" data-name="Rectangle 1744" width="9.237" height="10.624" fill="#242424"/>
    </clipPath>
  </defs>
  <g id="Group_5737" data-name="Group 5737" transform="translate(0 0)">
    <g id="Group_4443" data-name="Group 4443" transform="translate(0 0)" clip-path="url(#clip-path)">
      <path id="Path_5121" data-name="Path 5121" d="M9.237,1.346H5.978V.633A.633.633,0,0,0,5.346,0H3.912A.633.633,0,0,0,3.28.633v.714H0v.635H.646a.686.686,0,0,0-.022.109V9.88a.745.745,0,0,0,.744.744H7.905A.745.745,0,0,0,8.65,9.88V2.09a.686.686,0,0,0-.022-.109h.61ZM3.912.635l1.431,0v.714H3.915Zm4.1,1.455V9.88a.11.11,0,0,1-.109.109H1.367a.109.109,0,0,1-.109-.109V2.09a.109.109,0,0,1,.109-.109H7.905a.109.109,0,0,1,.109.109" transform="translate(0 0)" fill="#242424"/>
      <rect id="Rectangle_1741" data-name="Rectangle 1741" width="0.635" height="5.924" transform="translate(2.299 2.992)" fill="#242424"/>
      <rect id="Rectangle_1742" data-name="Rectangle 1742" width="0.635" height="5.822" transform="translate(4.301 2.992)" fill="#242424"/>
      <rect id="Rectangle_1743" data-name="Rectangle 1743" width="0.635" height="5.822" transform="translate(6.018 2.992)" fill="#242424"/>
    </g>
  </g>
</svg>
