<svg id="Assessments_Big" data-name="Assessments Big" xmlns="http://www.w3.org/2000/svg" width="17.826" height="20.559" viewBox="0 0 17.826 20.559">
  <path id="Path_2268" data-name="Path 2268" d="M737.838,246.506H726.16a1.193,1.193,0,0,0-1.253,1.117v14.691a1.193,1.193,0,0,0,1.253,1.119h11.677a1.2,1.2,0,0,0,1.255-1.119V247.623A1.2,1.2,0,0,0,737.838,246.506Zm0,16.106H726.16c-.228,0-.42-.136-.42-.3V247.623c0-.159.192-.3.42-.3h11.677c.228,0,.42.138.42.3v14.691C738.258,262.475,738.066,262.612,737.838,262.612Z" transform="translate(-724.907 -242.875)"/>
  <path id="Path_2269" data-name="Path 2269" d="M727,249.322h6.263a.412.412,0,1,0,0-.824H727a.412.412,0,1,0,0,.824Z" transform="translate(-724.591 -242.137)"/>
  <path id="Path_2270" data-name="Path 2270" d="M727,251.09h6.663a.41.41,0,1,0,0-.82H727a.41.41,0,1,0,0,.82Z" transform="translate(-724.591 -241.48)"/>
  <path id="Path_2271" data-name="Path 2271" d="M727,253.067h8.5a.41.41,0,1,0,0-.82H727a.41.41,0,1,0,0,.82Z" transform="translate(-724.591 -240.747)"/>
  <path id="Path_2272" data-name="Path 2272" d="M736.3,254.288H727a.411.411,0,1,0,0,.822H736.3a.411.411,0,1,0,0-.822Z" transform="translate(-724.591 -239.991)"/>
  <path id="Path_2273" data-name="Path 2273" d="M740.9,243.857H729.227a1.191,1.191,0,0,0-1.253,1.117v1.65h.828v-1.65c0-.159.2-.3.425-.3H740.9c.23,0,.423.136.423.3v15.139c0,.161-.192.3-.423.3h-1.506v.822H740.9a1.2,1.2,0,0,0,1.255-1.119V244.974A1.2,1.2,0,0,0,740.9,243.857Z" transform="translate(-724.329 -243.857)"/>
</svg>
