<svg xmlns="http://www.w3.org/2000/svg" width="39.974" height="22.957" viewBox="0 0 39.974 22.957">
  <g id="Group_1399" data-name="Group 1399" transform="translate(-974.16 -217.603)">
    <path id="Path_1237" data-name="Path 1237" d="M426.02,108.731H411.651v.815H426.02a1.543,1.543,0,0,1,1.541,1.541v8.034a1.543,1.543,0,0,1-1.541,1.541H390.758a1.543,1.543,0,0,1-1.541-1.541v-8.034a1.543,1.543,0,0,1,1.541-1.541v-.815a2.359,2.359,0,0,0-2.356,2.356v8.034a2.359,2.359,0,0,0,2.356,2.356H426.02a2.359,2.359,0,0,0,2.356-2.356v-8.034a2.359,2.359,0,0,0-2.356-2.356" transform="translate(585.758 119.082)" fill="#1a1818"/>
    <path id="Path_1238" data-name="Path 1238" d="M531.834,134.1h.844c1.146,0,1.772-.543,1.772-1.538s-.618-1.5-1.772-1.5h-1.643v5.254h.8Zm0-2.292h.761c.724,0,1.04.234,1.04.769s-.324.776-1.04.776h-.761Z" transform="translate(466.373 100.387)" fill="#1a1818"/>
    <path id="Path_1239" data-name="Path 1239" d="M562.575,133.736a2.448,2.448,0,0,0-2.721-2.669h-1.485v5.254h1.478c1.772,0,2.729-.912,2.729-2.586m-2.8,1.839h-.6v-3.762h.671c1.3,0,1.915.6,1.915,1.892s-.611,1.87-1.99,1.87" transform="translate(443.495 100.387)" fill="#1a1818"/>
    <path id="Path_1240" data-name="Path 1240" d="M594.512,131.813v-.746h-3.671v5.254h.807V134h2.518v-.746h-2.518v-1.44Z" transform="translate(416.315 100.387)" fill="#1a1818"/>
    <path id="Path_1241" data-name="Path 1241" d="M416.678,65.374h12.038a1.809,1.809,0,0,0,1.807-1.807V47.894a1.809,1.809,0,0,0-1.807-1.807H420.3l-5.432,5.1V63.567a1.809,1.809,0,0,0,1.807,1.807m13.031-17.48V63.567a.994.994,0,0,1-.992.992H416.678a.993.993,0,0,1-.992-.992V51.787h3.907a1.293,1.293,0,0,0,1.293-1.3l-.014-3.587h7.844a.993.993,0,0,1,.992.992m-9.637,2.6a.478.478,0,0,1-.478.48h-3.288l3.755-3.537Z" transform="translate(563.603 171.516)" fill="#1a1818"/>
    <path id="Path_1242" data-name="Path 1242" d="M441.21,99l-.576.576,3.742,3.742,3.742-3.742L447.542,99l-2.759,2.759V94.271h-.815v7.484Z" transform="translate(542.04 131.186)" fill="#1a1818"/>
  </g>
</svg>
