<svg xmlns="http://www.w3.org/2000/svg" xmlns:xlink="http://www.w3.org/1999/xlink" width="39.974" height="28.725" viewBox="0 0 39.974 28.725">
  <defs>
    <clipPath id="clip-path">
      <rect id="Rectangle_1753" data-name="Rectangle 1753" width="39.974" height="28.725" transform="translate(0 0)" fill="none"/>
    </clipPath>
  </defs>
  <g id="Group_4479" data-name="Group 4479" transform="translate(0 0.001)">
    <g id="Group_4478" data-name="Group 4478" clip-path="url(#clip-path)">
      <path id="Path_5134" data-name="Path 5134" d="M6.658,7.145A2.556,2.556,0,0,0,9.044,5.489a3.4,3.4,0,0,0,5.469.018,2.562,2.562,0,1,0,.635-2.779,3.436,3.436,0,0,0-6.728.013,2.555,2.555,0,1,0-1.762,4.4M16.894,2.9A1.69,1.69,0,1,1,15.2,4.588,1.692,1.692,0,0,1,16.894,2.9M11.786.868A2.57,2.57,0,1,1,9.217,3.437,2.573,2.573,0,0,1,11.786.868M6.658,2.9a1.69,1.69,0,1,1-1.69,1.69A1.692,1.692,0,0,1,6.658,2.9" fill="#231f20"/>
      <path id="Path_5135" data-name="Path 5135" d="M13.869,8.172H9.441a3.57,3.57,0,0,0-3.566,3.566v1.425h.868V11.738a2.7,2.7,0,0,1,2.7-2.7h4.428a2.7,2.7,0,0,1,2.7,2.7v1.425h.868V11.738a3.57,3.57,0,0,0-3.566-3.566" fill="#231f20"/>
      <path id="Path_5136" data-name="Path 5136" d="M6.658,7.431H5.635a2.994,2.994,0,0,0-2.991,2.99v1.162h.868V10.421A2.125,2.125,0,0,1,5.635,8.3H6.658Z" fill="#231f20"/>
      <path id="Path_5137" data-name="Path 5137" d="M17.515,7.431H16.492V8.3h1.023a2.124,2.124,0,0,1,2.122,2.122v1.162H20.5V10.421a2.993,2.993,0,0,0-2.99-2.99" fill="#231f20"/>
      <path id="Path_5138" data-name="Path 5138" d="M26.218,24.24H25.154l-.8-1.428-.842,1.428H22.5L23.846,22.1l-1.283-2.056H23.61l.748,1.362.767-1.362h1.013L24.856,22.07Z" fill="#1a1818"/>
      <path id="Path_5139" data-name="Path 5139" d="M26.731,20.047h.876v3.438h2.076v.754H26.731Z" fill="#1a1818"/>
      <path id="Path_5140" data-name="Path 5140" d="M31.813,23.634a1.547,1.547,0,0,0,.5-.068.486.486,0,0,0,.367-.487.355.355,0,0,0-.182-.321,1.927,1.927,0,0,0-.572-.2l-.442-.1a2.837,2.837,0,0,1-.906-.321,1.024,1.024,0,0,1-.424-.907,1.211,1.211,0,0,1,.41-.937,1.734,1.734,0,0,1,1.2-.372,1.837,1.837,0,0,1,1.131.351,1.258,1.258,0,0,1,.489,1.02h-.841a.6.6,0,0,0-.331-.538,1.1,1.1,0,0,0-.509-.1.952.952,0,0,0-.54.136.435.435,0,0,0-.2.381.36.36,0,0,0,.2.336,2.4,2.4,0,0,0,.545.174l.723.173a1.876,1.876,0,0,1,.717.3,1.026,1.026,0,0,1,.376.857,1.208,1.208,0,0,1-.44.954,1.845,1.845,0,0,1-1.242.38,2.013,2.013,0,0,1-1.288-.374,1.247,1.247,0,0,1-.469-1.028h.835a.863.863,0,0,0,.157.429.9.9,0,0,0,.732.259" fill="#1a1818"/>
      <path id="Path_5141" data-name="Path 5141" d="M37.546,24.24H36.482l-.8-1.428-.842,1.428H33.825L35.174,22.1l-1.283-2.056h1.047l.748,1.362.767-1.362h1.013L36.184,22.07Z" fill="#1a1818"/>
      <path id="Path_5142" data-name="Path 5142" d="M37.618,15.979H23.249v.815H37.618a1.542,1.542,0,0,1,1.541,1.541v8.034a1.542,1.542,0,0,1-1.541,1.541H2.356A1.542,1.542,0,0,1,.815,26.369V18.335a1.542,1.542,0,0,1,1.541-1.541v-.815A2.359,2.359,0,0,0,0,18.335v8.034a2.359,2.359,0,0,0,2.356,2.356H37.618a2.359,2.359,0,0,0,2.356-2.356V18.335a2.359,2.359,0,0,0-2.356-2.356" fill="#1a1818"/>
      <path id="Path_5143" data-name="Path 5143" d="M9.09,18.352l-.576.576,3.742,3.742L16,18.928l-.576-.576-2.759,2.759V13.623h-.815v7.484Z" fill="#1a1818"/>
    </g>
  </g>
</svg>
