<svg xmlns="http://www.w3.org/2000/svg" xmlns:xlink="http://www.w3.org/1999/xlink" width="32.275" height="24.123" viewBox="0 0 32.275 24.123">
  <defs>
    <clipPath id="clip-path">
      <rect id="Rectangle_1673" data-name="Rectangle 1673" width="32.275" height="24.123" transform="translate(0 0)" fill="none" stroke="#242424" stroke-width="1"/>
    </clipPath>
  </defs>
  <g id="Group_4370" data-name="Group 4370" transform="translate(0 0)">
    <g id="Group_4369" data-name="Group 4369" clip-path="url(#clip-path)">
      <rect id="Rectangle_1672" data-name="Rectangle 1672" width="19.126" height="13.346" rx="2.101" transform="translate(0.5 10.277)" fill="none" stroke="#242424" stroke-miterlimit="10" stroke-width="1"/>
      <path id="Path_5086" data-name="Path 5086" d="M17.335,12.3,11.7,17.936a2.371,2.371,0,0,1-3.352,0L2.714,12.3" fill="none" stroke="#242424" stroke-miterlimit="10" stroke-width="1"/>
      <line id="Line_140" data-name="Line 140" y1="4.211" x2="4.211" transform="translate(3.601 17.398)" fill="none" stroke="#242424" stroke-miterlimit="10" stroke-width="1"/>
      <line id="Line_141" data-name="Line 141" x1="4.283" y1="4.283" transform="translate(12.309 17.326)" fill="none" stroke="#242424" stroke-miterlimit="10" stroke-width="1"/>
      <path id="Path_5087" data-name="Path 5087" d="M12.649,9.121V2.869a2.1,2.1,0,0,1,2.1-2.1H29.674a2.1,2.1,0,0,1,2.1,2.1v9.144a2.1,2.1,0,0,1-2.1,2.1h-9.2" fill="none" stroke="#242424" stroke-miterlimit="10" stroke-width="1"/>
      <path id="Path_5088" data-name="Path 5088" d="M29.484,2.792,23.849,8.427a2.371,2.371,0,0,1-3.352,0L14.863,2.792" fill="none" stroke="#242424" stroke-miterlimit="10" stroke-width="1"/>
      <line id="Line_142" data-name="Line 142" y1="2.411" x2="2.411" transform="translate(17.55 7.891)" fill="none" stroke="#242424" stroke-miterlimit="10" stroke-width="1"/>
      <line id="Line_143" data-name="Line 143" x1="4.283" y1="4.283" transform="translate(24.458 7.818)" fill="none" stroke="#242424" stroke-miterlimit="10" stroke-width="1"/>
      <line id="Line_144" data-name="Line 144" x1="5.441" transform="translate(5.366 0.768)" fill="none" stroke="#242424" stroke-miterlimit="10" stroke-width="1"/>
      <line id="Line_145" data-name="Line 145" x1="2.127" transform="translate(8.68 3.752)" fill="none" stroke="#242424" stroke-miterlimit="10" stroke-width="1"/>
      <line id="Line_146" data-name="Line 146" x1="0.708" transform="translate(6.324 3.73)" fill="none" stroke="#242424" stroke-miterlimit="10" stroke-width="1"/>
      <line id="Line_147" data-name="Line 147" x1="0.963" transform="translate(2.713 0.5)" fill="none" stroke="#242424" stroke-miterlimit="10" stroke-width="1"/>
      <line id="Line_148" data-name="Line 148" x1="9.882" transform="translate(1.362 6.692)" fill="none" stroke="#242424" stroke-miterlimit="10" stroke-width="1"/>
      <line id="Line_149" data-name="Line 149" x2="6.129" transform="translate(20.814 16.136)" fill="none" stroke="#242424" stroke-miterlimit="10" stroke-width="1"/>
      <line id="Line_150" data-name="Line 150" x2="0.852" transform="translate(28.632 16.136)" fill="none" stroke="#242424" stroke-miterlimit="10" stroke-width="1"/>
      <line id="Line_151" data-name="Line 151" x2="0.815" transform="translate(30.508 16.136)" fill="none" stroke="#242424" stroke-miterlimit="10" stroke-width="1"/>
      <line id="Line_152" data-name="Line 152" x2="9.253" transform="translate(20.721 20.702)" fill="none" stroke="#242424" stroke-miterlimit="10" stroke-width="1"/>
      <line id="Line_153" data-name="Line 153" x2="1.876" transform="translate(22.69 18.63)" fill="none" stroke="#242424" stroke-miterlimit="10" stroke-width="1"/>
      <line id="Line_154" data-name="Line 154" x2="1.31" transform="translate(26.193 18.63)" fill="none" stroke="#242424" stroke-miterlimit="10" stroke-width="1"/>
      <line id="Line_155" data-name="Line 155" x2="1.751" transform="translate(21.189 23.376)" fill="none" stroke="#242424" stroke-miterlimit="10" stroke-width="1"/>
    </g>
  </g>
</svg>
