<svg xmlns="http://www.w3.org/2000/svg" width="11.736" height="7.845" viewBox="0 0 11.736 7.845">
  <g id="Frame" transform="translate(0 -0.002)">
    <g id="aBVOOx" transform="translate(0 0.002)">
      <path id="Vector" d="M11.736,3.625a1.484,1.484,0,0,1-.137.338A8.7,8.7,0,0,1,8.989,6.823a5.07,5.07,0,0,1-5.959.1A9.054,9.054,0,0,1,.839,4.9,10.508,10.508,0,0,1,0,3.627a18.117,18.117,0,0,1,2.2-2.32A5.824,5.824,0,0,1,7.2.162a6.978,6.978,0,0,1,3.667,2.36C11.177,2.872,11.448,3.256,11.736,3.625Zm-3.429.288A2.445,2.445,0,1,0,7.592,5.64a2.45,2.45,0,0,0,.715-1.727Z" transform="translate(0 0)" fill="#cdcdcd"/>
      <path id="Vector-2" data-name="Vector" d="M1.448,2.932A1.441,1.441,0,0,1,0,1.448,1.441,1.441,0,0,1,1.483,0,1.441,1.441,0,0,1,2.932,1.483,1.443,1.443,0,0,1,1.448,2.932Z" transform="translate(4.402 2.452)" fill="#cdcdcd"/>
    </g>
  </g>
</svg>
