<?xml version="1.0" encoding="UTF-8"?><svg id="Layer_1" xmlns="http://www.w3.org/2000/svg" viewBox="0 0 300 300"><defs><style>.cls-1{fill:#e6e7e8;}.cls-2{fill:#fff;}.cls-3,.cls-4{fill:#d8d8d8;}.cls-5{fill:#1d1613;}.cls-4{fill-rule:evenodd;}</style></defs><path class="cls-2" d="M145.9,192c-23.2,0-42-18.8-42-42s18.8-42,42-42,42,18.8,42,42-18.8,42-42,42Z"/><path class="cls-1" d="M145.86,154.83c-.4,.2-.64,.63-.6,1.08,.1,.35,.25,.69,.44,1h.73c.27,0,.69-.52,1-1.42,.1-.25,.08-.53-.06-.76-.51-.04-1.01,0-1.51,.1Z"/><path class="cls-1" d="M147.14,158h-.76c-.39,0-.72,.6-.72,.6-.32,.7-.58,1.42-.77,2.17,.23,.68,.63,1.29,1.16,1.77,.58-.17,1.29-.79,2-2.3-.14-.46-.78-1.66-.88-2,.01-.08,0-.16-.03-.24Z"/><path class="cls-3" d="M162.96,163.71c-.27-1.11-.63-2.2-1.07-3.25-.46-1.11-1.08-2.16-1.82-3.11-1.95-1.01-4.03-1.75-6.18-2.2-1.26-.25-1.63,.57-1.63,.57,0,0-.88,1.61-2.13,4.43s-2.21,3.48-2.95,3.45c-.43,0-.94-.58-1.28-1-.09,.01-.18,.01-.27,0-.74,0-1.68-1.64-1.68-1.64,0,0-2.09-4.54-2.73-5.79-1.49,.12-2.94,.5-4.3,1.12-4.54,1.75-5,3.46-5.16,3.92s-1.42,4.57-1.42,4.57c.14,.16,.3,.31,.47,.45,1.38,.66,2.86,1.13,4.37,1.38,3.46,.54,6.94,.88,10.44,1,3.38-.04,6.76-.31,10.1-.82,6.39-1.16,7.24-3.08,7.24-3.08Z"/><path class="cls-4" d="M153.3,142.41c-.32-.35-.42-.83-.28-1.28,0-.31,.07-.61,.1-.92-.02-1.08-.23-2.14-.63-3.14-.95-1.98-2.67-3.5-4.76-4.19-.64-.09-1.3-.09-1.94,0-.72,.09-1.33,.56-1.6,1.23-.11,.17-.26,.3-.44,.39-.61,.29-1.19,.66-1.72,1.09-1.44,1.57-2.11,3.71-1.82,5.82,0,.52,.19,1-.29,1.41-.16,.18-.27,.41-.31,.65-.33,1.54,.44,3.11,1.87,3.78,.27,.09,.47,.32,.53,.6,.38,1.27,1.06,2.44,2,3.38,.45,.47,.99,.85,1.58,1.12,1.37,.04,2.7-.5,3.65-1.48,.94-.99,1.62-2.19,2-3.5,.06-.19,.19-.36,.37-.46,1.06-.46,1.81-1.42,2-2.56,.22-.66,.1-1.38-.31-1.94Z"/><g id="hcfYt1"><path class="cls-5" d="M145.79,152.78c-1.42-.03-2.77-.63-3.75-1.66-.97-.99-1.69-2.21-2.08-3.54-.07-.22-.12-.28-.3-.35-1.6-.75-2.47-2.5-2.1-4.23,.05-.32,.2-.63,.43-.86,.25-.21,.23-.4,.19-.83,0-.08,0-.17,0-.25-.3-2.23,.41-4.47,1.93-6.12,.36-.34,.77-.62,1.22-.83l.58-.32c.1-.06,.2-.14,.28-.22,.32-.8,1.05-1.36,1.9-1.45,.36-.07,.72-.1,1.09-.1,3.29,.07,6.26,1.96,7.71,4.91,.41,1.05,.63,2.16,.65,3.28h0v.31c0,.21,0,.43-.08,.65-.07,.44-.08,.67,.18,.95,.53,.65,.71,1.52,.46,2.32-.22,1.27-1.07,2.34-2.26,2.84-.07,.05-.12,.13-.14,.21-.41,1.38-1.15,2.64-2.16,3.66-.98,1.03-2.33,1.62-3.75,1.63Zm-.64-20c-.34,0-.67,.02-1,.08-.59,.06-1.09,.45-1.3,1-.13,.24-.33,.43-.57,.56-.22,.14-.44,.26-.65,.37-.36,.17-.7,.4-1,.67-1.36,1.5-1.97,3.54-1.67,5.54,.08,.61-.07,1.24-.43,1.74-.09,.14-.15,.3-.18,.46-.27,1.34,.4,2.7,1.63,3.3,.38,.14,.66,.46,.76,.85,.36,1.21,1,2.32,1.88,3.22,1.58,1.75,4.28,1.89,6.03,.31,.11-.1,.21-.2,.31-.31,.93-.93,1.62-2.07,2-3.33,.09-.3,.3-.56,.58-.7,.95-.4,1.63-1.27,1.79-2.29,.19-.54,.09-1.14-.26-1.6-.4-.44-.55-1.05-.38-1.62,0-.2,0-.4,.07-.6v-.26c-.02-1.03-.22-2.04-.6-3-1.36-2.63-4.05-4.3-7.01-4.36v-.03Z"/></g><path class="cls-5" d="M146.43,157.31h-1.33c-.31-.01-.6-.16-.79-.4-.28-.39-.48-.83-.6-1.3-.1-.65,.25-1.28,.84-1.56,.38-.1,.78-.14,1.17-.12h1.09c.37,.07,.69,.28,.89,.59,.19,.32,.22,.71,.08,1.06-.25,.86-.74,1.73-1.35,1.73Zm-.71-2.59c-.3-.02-.61,0-.9,.08-.25,.09-.36,.51-.35,.63,.1,.36,.26,.69,.47,1,.04,.05,.1,.09,.16,.1h1.3c.31-.31,.53-.7,.63-1.13,.05-.14,.05-.28,0-.42-.08-.1-.19-.18-.31-.21-.12-.02-.55-.05-1-.05Z"/><path class="cls-5" d="M145.67,163c-1.14,0-2.2-2.22-2.32-2.47l-.06-.15,.85-2.37c.07-.14,.47-.81,1.07-.81h1.44c.48,.07,.87,.42,1,.89,.12,.34,.26,.68,.42,1,.19,.42,.37,.81,.45,1v.16l-.08,.14c-.85,1.72-1.78,2.61-2.77,2.61Zm-1.53-2.66c.41,.81,1.15,1.87,1.53,1.87s1.1-.27,2-2c-.09-.21-.23-.52-.36-.8-.19-.36-.35-.73-.47-1.12-.05-.14-.16-.26-.31-.3h-1.32c-.07,0-.26,.19-.36,.37l-.71,1.98Z"/><path class="cls-5" d="M145.15,168c-3.35-.16-6.69-.49-10-1-1.41-.24-4.86-1-6.61-3l-.15-.17,.06-.21c.12-.42,1.22-4.14,1.44-4.61v-.1c.26-.64,1-2.34,5.34-4,1.39-.62,2.87-1.01,4.39-1.15,.76-.08,1.49,.32,1.84,1,.46,.83,2.75,5.81,2.85,6,.38,.64,1,1.4,1.33,1.41h0c.77,0,1.65-1.12,2.58-3.22,1.24-2.8,2.13-4.45,2.14-4.46,.31-.55,.9-.87,1.53-.83,.18,0,.36,.02,.53,.06,0,0,5,1,7.89,3.3l.06,.05c.77,.98,1.4,2.07,1.88,3.22,.46,1.07,.83,2.18,1.1,3.32v.24c-.1,.22-1.16,2.15-7.53,3.28-2.87,.46-5.78,.72-8.69,.77l-1.46,.05-.52,.05Zm-15.88-4.36c1.69,1.71,5,2.4,6,2.57,3.43,.54,6.9,.88,10.37,1l1.47-.05c2.87-.05,5.74-.31,8.58-.76,5.14-.92,6.58-2.35,6.88-2.74-.26-1.02-.59-2.03-1-3-.45-1.07-1.03-2.08-1.74-3-2.25-1.79-6.18-2.86-7.51-3.11-.13-.01-.25-.01-.38,0-.33-.04-.65,.11-.83,.39,0,0-.89,1.65-2.11,4.42-1.12,2.52-2.16,3.69-3.28,3.69-.94,0-1.82-1.41-2.06-1.84,0-.08-2.4-5.19-2.84-6-.2-.44-.67-.69-1.15-.62-1.42,.14-2.81,.51-4.11,1.1-4.07,1.57-4.66,3-4.89,3.59v.12c-.2,.24-.91,2.6-1.4,4.23h0Z"/></svg>