<svg xmlns="http://www.w3.org/2000/svg" xmlns:xlink="http://www.w3.org/1999/xlink" width="25" height="25" viewBox="0 0 25 25">
  <defs>
    <clipPath id="clip-path">
      <rect id="Rectangle_2947" data-name="Rectangle 2947" width="25" height="25" fill="none"/>
    </clipPath>
  </defs>
  <g id="Group_5899" data-name="Group 5899" transform="translate(0 0)">
    <g id="Group_5898" data-name="Group 5898" transform="translate(0 0)" clip-path="url(#clip-path)">
      <path id="Path_5165" data-name="Path 5165" d="M14.1,10.764a2.6,2.6,0,0,0,2.636-2.544,2.637,2.637,0,0,0-5.271,0A2.6,2.6,0,0,0,14.1,10.764m0-4.2a1.707,1.707,0,0,1,1.748,1.657,1.751,1.751,0,0,1-3.5,0A1.707,1.707,0,0,1,14.1,6.562" transform="translate(4.859 2.405)"/>
      <path id="Path_5166" data-name="Path 5166" d="M9.819,10.651a3.465,3.465,0,0,0,3.523-3.394A3.464,3.464,0,0,0,9.819,3.862,3.464,3.464,0,0,0,6.3,7.256a3.465,3.465,0,0,0,3.523,3.394m0-5.9a2.576,2.576,0,0,1,2.636,2.507A2.576,2.576,0,0,1,9.819,9.764,2.576,2.576,0,0,1,7.183,7.256,2.576,2.576,0,0,1,9.819,4.749" transform="translate(2.669 1.637)"/>
      <path id="Path_5167" data-name="Path 5167" d="M12.432,9.539H8.324a3.375,3.375,0,0,0-3.343,3.4l.027,1.724a.445.445,0,0,0,.443.437h.007a.445.445,0,0,0,.437-.451l-.027-1.717a2.485,2.485,0,0,1,2.456-2.507h4.108a2.485,2.485,0,0,1,2.458,2.507v1.724a.443.443,0,1,0,.886,0V12.933a3.373,3.373,0,0,0-3.343-3.394" transform="translate(2.111 4.043)"/>
      <path id="Path_5168" data-name="Path 5168" d="M14.805,10.513H13.159a.444.444,0,1,0,0,.887h1.646a1.779,1.779,0,0,1,1.684,1.857V14.6a.444.444,0,0,0,.887,0V13.257a2.665,2.665,0,0,0-2.571-2.744" transform="translate(5.389 4.456)"/>
      <path id="Path_5169" data-name="Path 5169" d="M5.065,10.764A2.6,2.6,0,0,0,7.7,8.219,2.6,2.6,0,0,0,5.065,5.675,2.6,2.6,0,0,0,2.429,8.219a2.6,2.6,0,0,0,2.636,2.544m0-4.2A1.707,1.707,0,0,1,6.813,8.219,1.707,1.707,0,0,1,5.065,9.877,1.707,1.707,0,0,1,3.316,8.219,1.707,1.707,0,0,1,5.065,6.562" transform="translate(1.03 2.405)"/>
      <path id="Path_5170" data-name="Path 5170" d="M5.695,10.513H4.141A2.665,2.665,0,0,0,1.57,13.257V14.6a.443.443,0,0,0,.886,0V13.257A1.779,1.779,0,0,1,4.141,11.4H5.695a.444.444,0,0,0,0-.887" transform="translate(0.665 4.456)"/>
    </g>
  </g>
</svg>
