<svg id="Group_472" data-name="Group 472" xmlns="http://www.w3.org/2000/svg" width="62.997" height="55.547" viewBox="0 0 62.997 55.547">
  <g id="Group_422" data-name="Group 422" transform="translate(33.782 20.349)">
    <g id="Group_421" data-name="Group 421">
      <path id="Path_658" data-name="Path 658" d="M765.324,393.222v2.039H767.7a.78.78,0,0,1,.78.781v4.427a.781.781,0,0,1-.78.781h-2.375V404.9H767.7a.78.78,0,0,1,.78.781v4.427a.781.781,0,0,1-.78.781h-2.375V413.8H767.7a.78.78,0,0,1,.78.781v4.427a.78.78,0,0,1-.78.781h-2.375v8.125h23.99V393.222Zm11.7,25.786a.78.78,0,0,1-.782.781h-2.864a.78.78,0,0,1-.78-.781v-4.427a.78.78,0,0,1,.78-.781h2.864a.78.78,0,0,1,.782.781Zm0-8.9a.781.781,0,0,1-.782.781h-2.864a.781.781,0,0,1-.78-.781v-4.427a.78.78,0,0,1,.78-.781h2.864a.78.78,0,0,1,.782.781Zm0-9.636a.782.782,0,0,1-.782.781h-2.864a.781.781,0,0,1-.78-.781v-4.427a.78.78,0,0,1,.78-.781h2.864a.78.78,0,0,1,.782.781Zm8.6,18.539a.781.781,0,0,1-.782.781h-2.865a.782.782,0,0,1-.782-.781v-4.427a.782.782,0,0,1,.782-.781h2.865a.781.781,0,0,1,.782.781Zm0-8.9a.782.782,0,0,1-.782.781h-2.865a.783.783,0,0,1-.782-.781v-4.427a.782.782,0,0,1,.782-.781h2.865a.781.781,0,0,1,.782.781Zm0-9.636a.782.782,0,0,1-.782.781h-2.865a.784.784,0,0,1-.782-.781v-4.427a.782.782,0,0,1,.782-.781h2.865a.781.781,0,0,1,.782.781Z" transform="translate(-765.324 -393.222)" fill="#8cb8e2"/>
    </g>
  </g>
  <g id="Group_424" data-name="Group 424" transform="translate(12.081 10.358)">
    <g id="Group_423" data-name="Group 423">
      <path id="Path_659" data-name="Path 659" d="M745.077,383.231a1.458,1.458,0,0,0-1.454,1.462v2.032h2.819a.784.784,0,0,1,.781.781v4.427a.783.783,0,0,1-.781.781h-2.819v3.463h2.819a.784.784,0,0,1,.781.781v4.428a.783.783,0,0,1-.781.78h-2.819v3.654h2.819a.785.785,0,0,1,.781.786v4.423a.78.78,0,0,1-.781.781h-2.819v16.1H746.5v-6.408a3.28,3.28,0,0,1,6.559,0v6.532c1.485,0,6.059-.124,6.059-.124h2.732V383.231Zm11.682,27.8a.781.781,0,0,1-.781.781h-2.867a.782.782,0,0,1-.782-.781v-4.423a.787.787,0,0,1,.782-.786h2.867a.786.786,0,0,1,.781.786Zm0-9.643a.784.784,0,0,1-.781.78h-2.867a.785.785,0,0,1-.782-.78v-4.428a.786.786,0,0,1,.782-.781h2.867a.785.785,0,0,1,.781.781Zm0-9.453a.785.785,0,0,1-.781.781h-2.867a.785.785,0,0,1-.782-.781v-4.427a.786.786,0,0,1,.782-.781h2.867a.785.785,0,0,1,.781.781Z" transform="translate(-743.623 -383.231)" fill="#8cb8e2"/>
    </g>
  </g>
  <g id="Group_426" data-name="Group 426" transform="translate(4.6 2.35)">
    <g id="Group_425" data-name="Group 425">
      <path id="Path_660" data-name="Path 660" d="M738.749,375.223a2.211,2.211,0,1,0-1.857,3.372h25.329a2.607,2.607,0,0,0,2.607-2.607.558.558,0,0,0-.749-.765Z" transform="translate(-736.142 -375.223)" fill="#8cb8e2"/>
    </g>
  </g>
  <g id="Group_428" data-name="Group 428" transform="translate(30.309 13.854)">
    <g id="Group_427" data-name="Group 427">
      <path id="Path_661" data-name="Path 661" d="M761.851,386.727v2.994h27.442a2.849,2.849,0,0,0,3.04-2.608c0-.074-.019-.144-.023-.217a3.514,3.514,0,0,0-1.054-.169Z" transform="translate(-761.851 -386.727)" fill="#8cb8e2"/>
    </g>
  </g>
  <g id="Group_430" data-name="Group 430" transform="translate(2.234)">
    <g id="Group_429" data-name="Group 429">
      <path id="Path_662" data-name="Path 662" d="M762.221,379.1H736.892a3.115,3.115,0,1,1,0-6.229h25.329a3.115,3.115,0,0,1,0,6.229Zm-25.329-5.215a2.1,2.1,0,1,0,0,4.2h25.329a2.1,2.1,0,0,0,0-4.2Z" transform="translate(-733.776 -372.873)" fill="#1c1511"/>
    </g>
  </g>
  <g id="Group_432" data-name="Group 432" transform="translate(5.512 5.215)">
    <g id="Group_431" data-name="Group 431">
      <path id="Path_663" data-name="Path 663" d="M762.354,428.42h-25.3V378.088h25.3Zm-24.287-1.013h23.275V379.1H738.067Z" transform="translate(-737.054 -378.088)" fill="#fff"/>
    </g>
  </g>
  <g id="Group_434" data-name="Group 434" transform="translate(29.8 16.341)">
    <g id="Group_433" data-name="Group 433">
      <path id="Path_664" data-name="Path 664" d="M789.822,428.42h-28.48V389.214h28.48Zm-27.468-1.013H788.81v-37.18H762.354Z" transform="translate(-761.342 -389.214)" fill="#1c1511"/>
    </g>
  </g>
  <g id="Group_436" data-name="Group 436" transform="translate(29.8 11.126)">
    <g id="Group_435" data-name="Group 435">
      <path id="Path_665" data-name="Path 665" d="M789.531,390.227H761.342V384h28.189a3.124,3.124,0,1,1,0,6.228Zm-27.177-1.013h27.177a2.115,2.115,0,1,0,0-4.2H762.354Z" transform="translate(-761.342 -383.999)" fill="#1c1511"/>
    </g>
  </g>
  <g id="Group_438" data-name="Group 438" transform="translate(0 54.534)">
    <g id="Group_437" data-name="Group 437">
      <path id="Path_666" data-name="Path 666" d="M794.032,428.42H732.049a.507.507,0,1,1,0-1.013h61.983a.507.507,0,1,1,0,1.013Z" transform="translate(-731.542 -427.407)" fill="#1c1511"/>
    </g>
  </g>
  <g id="Group_440" data-name="Group 440" transform="translate(32.004 21.88)">
    <g id="Group_439" data-name="Group 439">
      <path id="Path_667" data-name="Path 667" d="M767.7,401.757h-2.864a1.291,1.291,0,0,1-1.289-1.288v-4.427a1.291,1.291,0,0,1,1.289-1.289H767.7a1.289,1.289,0,0,1,1.287,1.289v4.427A1.289,1.289,0,0,1,767.7,401.757Zm-2.864-5.989a.276.276,0,0,0-.275.274v4.427a.277.277,0,0,0,.275.274H767.7a.274.274,0,0,0,.274-.274v-4.427a.274.274,0,0,0-.274-.274Z" transform="translate(-763.546 -394.753)" fill="#1c1511"/>
    </g>
  </g>
  <g id="Group_442" data-name="Group 442" transform="translate(20.282 13.344)">
    <g id="Group_441" data-name="Group 441">
      <path id="Path_668" data-name="Path 668" d="M755.978,393.221h-2.867a1.287,1.287,0,0,1-1.287-1.288v-4.427a1.288,1.288,0,0,1,1.287-1.289h2.867a1.291,1.291,0,0,1,1.289,1.289v4.427A1.289,1.289,0,0,1,755.978,393.221Zm-2.867-5.99a.278.278,0,0,0-.274.275v4.427a.277.277,0,0,0,.274.274h2.867a.276.276,0,0,0,.274-.274v-4.427a.277.277,0,0,0-.274-.275Z" transform="translate(-751.824 -386.217)" fill="#1c1511"/>
    </g>
  </g>
  <g id="Group_444" data-name="Group 444" transform="translate(10.746 22.797)">
    <g id="Group_443" data-name="Group 443">
      <path id="Path_669" data-name="Path 669" d="M746.442,402.674h-2.866a1.288,1.288,0,0,1-1.288-1.288v-4.428a1.288,1.288,0,0,1,1.288-1.288h2.866a1.29,1.29,0,0,1,1.288,1.288v4.428A1.29,1.29,0,0,1,746.442,402.674Zm-2.866-5.989a.276.276,0,0,0-.274.273v4.428a.277.277,0,0,0,.274.274h2.866a.278.278,0,0,0,.274-.274v-4.428a.277.277,0,0,0-.274-.273Z" transform="translate(-742.288 -395.67)" fill="#1c1511"/>
    </g>
  </g>
  <g id="Group_446" data-name="Group 446" transform="translate(20.282 22.797)">
    <g id="Group_445" data-name="Group 445">
      <path id="Path_670" data-name="Path 670" d="M755.978,402.674h-2.867a1.288,1.288,0,0,1-1.287-1.288v-4.428a1.288,1.288,0,0,1,1.287-1.288h2.867a1.29,1.29,0,0,1,1.289,1.288v4.428A1.29,1.29,0,0,1,755.978,402.674Zm-2.867-5.989a.277.277,0,0,0-.274.273v4.428a.278.278,0,0,0,.274.274h2.867a.277.277,0,0,0,.274-.274v-4.428a.276.276,0,0,0-.274-.273Z" transform="translate(-751.824 -395.67)" fill="#1c1511"/>
    </g>
  </g>
  <g id="Group_448" data-name="Group 448" transform="translate(10.746 32.442)">
    <g id="Group_447" data-name="Group 447">
      <path id="Path_671" data-name="Path 671" d="M746.442,412.316h-2.866a1.288,1.288,0,0,1-1.288-1.287v-4.423a1.29,1.29,0,0,1,1.288-1.291h2.866a1.292,1.292,0,0,1,1.288,1.291v4.423A1.289,1.289,0,0,1,746.442,412.316Zm-2.866-5.989a.276.276,0,0,0-.274.279v4.423a.273.273,0,0,0,.274.275h2.866a.275.275,0,0,0,.274-.275v-4.423a.277.277,0,0,0-.274-.279Z" transform="translate(-742.288 -405.315)" fill="#1c1511"/>
    </g>
  </g>
  <g id="Group_450" data-name="Group 450" transform="translate(20.282 32.442)">
    <g id="Group_449" data-name="Group 449">
      <path id="Path_672" data-name="Path 672" d="M755.978,412.316h-2.867a1.287,1.287,0,0,1-1.287-1.287v-4.423a1.29,1.29,0,0,1,1.287-1.291h2.867a1.292,1.292,0,0,1,1.289,1.291v4.423A1.289,1.289,0,0,1,755.978,412.316Zm-2.867-5.989a.277.277,0,0,0-.274.279v4.423a.275.275,0,0,0,.274.275h2.867a.275.275,0,0,0,.274-.275v-4.423a.277.277,0,0,0-.274-.279Z" transform="translate(-751.824 -405.315)" fill="#1c1511"/>
    </g>
  </g>
  <g id="Group_452" data-name="Group 452" transform="translate(40.552 21.88)">
    <g id="Group_451" data-name="Group 451">
      <path id="Path_673" data-name="Path 673" d="M776.245,401.757h-2.864a1.289,1.289,0,0,1-1.287-1.288v-4.427a1.289,1.289,0,0,1,1.287-1.289h2.864a1.291,1.291,0,0,1,1.289,1.289v4.427A1.291,1.291,0,0,1,776.245,401.757Zm-2.864-5.989a.274.274,0,0,0-.274.274v4.427a.275.275,0,0,0,.274.274h2.864a.277.277,0,0,0,.275-.274v-4.427a.276.276,0,0,0-.275-.274Z" transform="translate(-772.094 -394.753)" fill="#1c1511"/>
    </g>
  </g>
  <g id="Group_454" data-name="Group 454" transform="translate(49.149 21.88)">
    <g id="Group_453" data-name="Group 453">
      <path id="Path_674" data-name="Path 674" d="M784.843,401.757h-2.865a1.29,1.29,0,0,1-1.287-1.288v-4.427a1.29,1.29,0,0,1,1.287-1.289h2.865a1.29,1.29,0,0,1,1.289,1.289v4.427A1.29,1.29,0,0,1,784.843,401.757Zm-2.865-5.989a.275.275,0,0,0-.274.274v4.427a.276.276,0,0,0,.274.274h2.865a.277.277,0,0,0,.275-.274v-4.427a.276.276,0,0,0-.275-.274Z" transform="translate(-780.691 -394.753)" fill="#1c1511"/>
    </g>
  </g>
  <g id="Group_456" data-name="Group 456" transform="translate(32.004 31.517)">
    <g id="Group_455" data-name="Group 455">
      <path id="Path_675" data-name="Path 675" d="M767.7,411.394h-2.864a1.291,1.291,0,0,1-1.289-1.289v-4.427a1.291,1.291,0,0,1,1.289-1.288H767.7a1.29,1.29,0,0,1,1.287,1.288v4.427A1.29,1.29,0,0,1,767.7,411.394Zm-2.864-5.99a.276.276,0,0,0-.275.274v4.427a.276.276,0,0,0,.275.274H767.7a.274.274,0,0,0,.274-.274v-4.427a.274.274,0,0,0-.274-.274Z" transform="translate(-763.546 -404.39)" fill="#1c1511"/>
    </g>
  </g>
  <g id="Group_458" data-name="Group 458" transform="translate(40.552 31.517)">
    <g id="Group_457" data-name="Group 457">
      <path id="Path_676" data-name="Path 676" d="M776.245,411.394h-2.864a1.29,1.29,0,0,1-1.287-1.289v-4.427a1.29,1.29,0,0,1,1.287-1.288h2.864a1.291,1.291,0,0,1,1.289,1.288v4.427A1.291,1.291,0,0,1,776.245,411.394Zm-2.864-5.99a.274.274,0,0,0-.274.274v4.427a.274.274,0,0,0,.274.274h2.864a.276.276,0,0,0,.275-.274v-4.427a.276.276,0,0,0-.275-.274Z" transform="translate(-772.094 -404.39)" fill="#1c1511"/>
    </g>
  </g>
  <g id="Group_460" data-name="Group 460" transform="translate(49.149 31.517)">
    <g id="Group_459" data-name="Group 459">
      <path id="Path_677" data-name="Path 677" d="M784.843,411.394h-2.865a1.29,1.29,0,0,1-1.287-1.289v-4.427a1.29,1.29,0,0,1,1.287-1.288h2.865a1.291,1.291,0,0,1,1.289,1.288v4.427A1.291,1.291,0,0,1,784.843,411.394Zm-2.865-5.99a.275.275,0,0,0-.274.274v4.427a.275.275,0,0,0,.274.274h2.865a.276.276,0,0,0,.275-.274v-4.427a.276.276,0,0,0-.275-.274Z" transform="translate(-780.691 -404.39)" fill="#1c1511"/>
    </g>
  </g>
  <g id="Group_462" data-name="Group 462" transform="translate(32.004 40.42)">
    <g id="Group_461" data-name="Group 461">
      <path id="Path_678" data-name="Path 678" d="M767.7,420.3h-2.864a1.291,1.291,0,0,1-1.289-1.288v-4.427a1.29,1.29,0,0,1,1.289-1.288H767.7a1.288,1.288,0,0,1,1.287,1.288v4.427A1.29,1.29,0,0,1,767.7,420.3Zm-2.864-5.988a.276.276,0,0,0-.275.273v4.427a.276.276,0,0,0,.275.273H767.7a.274.274,0,0,0,.274-.273v-4.427a.274.274,0,0,0-.274-.273Z" transform="translate(-763.546 -413.293)" fill="#1c1511"/>
    </g>
  </g>
  <g id="Group_464" data-name="Group 464" transform="translate(40.552 40.42)">
    <g id="Group_463" data-name="Group 463">
      <path id="Path_679" data-name="Path 679" d="M776.245,420.3h-2.864a1.29,1.29,0,0,1-1.287-1.288v-4.427a1.288,1.288,0,0,1,1.287-1.288h2.864a1.29,1.29,0,0,1,1.289,1.288v4.427A1.291,1.291,0,0,1,776.245,420.3Zm-2.864-5.988a.274.274,0,0,0-.274.273v4.427a.274.274,0,0,0,.274.273h2.864a.276.276,0,0,0,.275-.273v-4.427a.276.276,0,0,0-.275-.273Z" transform="translate(-772.094 -413.293)" fill="#1c1511"/>
    </g>
  </g>
  <g id="Group_466" data-name="Group 466" transform="translate(49.149 40.42)">
    <g id="Group_465" data-name="Group 465">
      <path id="Path_680" data-name="Path 680" d="M784.843,420.3h-2.865a1.29,1.29,0,0,1-1.287-1.288v-4.427a1.289,1.289,0,0,1,1.287-1.288h2.865a1.289,1.289,0,0,1,1.289,1.288v4.427A1.291,1.291,0,0,1,784.843,420.3Zm-2.865-5.988a.275.275,0,0,0-.274.273v4.427a.275.275,0,0,0,.274.273h2.865a.276.276,0,0,0,.275-.273v-4.427a.276.276,0,0,0-.275-.273Z" transform="translate(-780.691 -413.293)" fill="#1c1511"/>
    </g>
  </g>
  <g id="Group_468" data-name="Group 468" transform="translate(5.512 5.215)">
    <g id="Group_467" data-name="Group 467">
      <path id="Path_681" data-name="Path 681" d="M762.354,428.42h-9.8v-6.914a2.771,2.771,0,0,0-5.542,0v6.914h-9.956V378.088h25.3Zm-8.789-1.013h7.777V379.1H738.067v48.305H746v-5.9a3.785,3.785,0,0,1,7.569,0Z" transform="translate(-737.054 -378.088)" fill="#1c1511"/>
    </g>
  </g>
  <g id="Group_470" data-name="Group 470" transform="translate(10.746 13.344)">
    <g id="Group_469" data-name="Group 469">
      <path id="Path_682" data-name="Path 682" d="M746.442,393.221h-2.866a1.288,1.288,0,0,1-1.288-1.288v-4.427a1.289,1.289,0,0,1,1.288-1.289h2.866a1.291,1.291,0,0,1,1.288,1.289v4.427A1.29,1.29,0,0,1,746.442,393.221Zm-2.866-5.99a.277.277,0,0,0-.274.275v4.427a.276.276,0,0,0,.274.274h2.866a.277.277,0,0,0,.274-.274v-4.427a.278.278,0,0,0-.274-.275Z" transform="translate(-742.288 -386.217)" fill="#1c1511"/>
    </g>
  </g>
</svg>
