<svg id="Group_4372" data-name="Group 4372" xmlns="http://www.w3.org/2000/svg" xmlns:xlink="http://www.w3.org/1999/xlink" width="83.465" height="43.925" viewBox="0 0 83.465 43.925">
  <defs>
    <clipPath id="clip-path">
      <rect id="Rectangle_1678" data-name="Rectangle 1678" width="83.465" height="43.925" transform="translate(0 0)" fill="none"/>
    </clipPath>
  </defs>
  <g id="Group_4371" data-name="Group 4371" clip-path="url(#clip-path)">
    <path id="Path_5089" data-name="Path 5089" d="M73.633,9.167l8.016,4.917a2.761,2.761,0,0,1,1.316,2.352v24.23a2.759,2.759,0,0,1-2.759,2.759H37.344a2.758,2.758,0,0,1-2.758-2.759V16.432A2.761,2.761,0,0,1,35.9,14.083l8.12-5" fill="#fff"/>
    <path id="Path_5090" data-name="Path 5090" d="M73.633,9.167l8.016,4.917a2.761,2.761,0,0,1,1.316,2.352v24.23a2.759,2.759,0,0,1-2.759,2.759H37.344a2.758,2.758,0,0,1-2.758-2.759V16.432A2.761,2.761,0,0,1,35.9,14.083l8.12-5" fill="none" stroke="#1a5186" stroke-miterlimit="10" stroke-width="1"/>
    <path id="Path_5091" data-name="Path 5091" d="M80.745,43.02H59.424V37.705H82.632v3.429a1.886,1.886,0,0,1-1.887,1.886" fill="#2982cc"/>
    <path id="Path_5092" data-name="Path 5092" d="M73.633,21.468l-2.367,1.39V9.944h2.367Z" fill="#2982cc"/>
    <path id="Path_5093" data-name="Path 5093" d="M72.9,21.641,59.57,30.1a1.586,1.586,0,0,1-1.7,0L44.545,21.641a1.584,1.584,0,0,1-.734-1.337V7.012a1.582,1.582,0,0,1,1.583-1.583H72.05a1.583,1.583,0,0,1,1.583,1.583V20.3a1.582,1.582,0,0,1-.735,1.337" fill="#f9f9f9"/>
    <path id="Path_5094" data-name="Path 5094" d="M72.9,21.641,59.57,30.1a1.586,1.586,0,0,1-1.7,0L44.545,21.641a1.584,1.584,0,0,1-.734-1.337V7.012a1.582,1.582,0,0,1,1.583-1.583H72.05a1.583,1.583,0,0,1,1.583,1.583V20.3A1.582,1.582,0,0,1,72.9,21.641Z" fill="none" stroke="#1a5186" stroke-miterlimit="10" stroke-width="1"/>
    <path id="Path_5095" data-name="Path 5095" d="M67.207,5.428,60.167.907a2.759,2.759,0,0,0-2.89,0L49.945,5.428Z" fill="#f9f9f9"/>
    <path id="Path_5096" data-name="Path 5096" d="M67.207,5.428,60.167.907a2.759,2.759,0,0,0-2.89,0L49.945,5.428Z" fill="none" stroke="#1a5186" stroke-miterlimit="10" stroke-width="1"/>
    <line id="Line_171" data-name="Line 171" x2="4.559" transform="translate(50.942 12.559)" fill="none" stroke="#1a5186" stroke-miterlimit="10" stroke-width="1"/>
    <line id="Line_172" data-name="Line 172" x2="8.072" transform="translate(58.722 12.559)" fill="none" stroke="#1a5186" stroke-miterlimit="10" stroke-width="1"/>
    <line id="Line_173" data-name="Line 173" x2="8.96" transform="translate(50.942 17.543)" fill="none" stroke="#1a5186" stroke-miterlimit="10" stroke-width="1"/>
    <line id="Line_174" data-name="Line 174" x2="3.393" transform="translate(63.401 17.543)" fill="none" stroke="#1a5186" stroke-miterlimit="10" stroke-width="1"/>
    <line id="Line_175" data-name="Line 175" x2="15.852" transform="translate(50.942 22.42)" fill="none" stroke="#1a5186" stroke-miterlimit="10" stroke-width="1"/>
    <path id="Path_5097" data-name="Path 5097" d="M36.163,16.371,58.722,30.638,81.239,16.673" fill="none" stroke="#1a5186" stroke-miterlimit="10" stroke-width="1"/>
    <rect id="Rectangle_1674" data-name="Rectangle 1674" width="2.367" height="2.367" transform="translate(37.847 27.979)" fill="#2982cc"/>
    <rect id="Rectangle_1675" data-name="Rectangle 1675" width="2.367" height="7.852" transform="translate(37.847 32.222)" fill="#2982cc"/>
    <rect id="Rectangle_1676" data-name="Rectangle 1676" width="1.055" height="2.227" transform="translate(70.211 9.754)" fill="#2982cc"/>
    <rect id="Rectangle_1677" data-name="Rectangle 1677" width="1.053" height="7.179" transform="translate(70.212 13.063)" fill="#2982cc"/>
    <line id="Line_176" data-name="Line 176" x1="16.671" transform="translate(6.909 17.887)" fill="none" stroke="#1a5186" stroke-miterlimit="10" stroke-width="1"/>
    <line id="Line_177" data-name="Line 177" x1="10.497" transform="translate(14.51 34.885)" fill="none" stroke="#1a5186" stroke-miterlimit="10" stroke-width="1"/>
    <line id="Line_178" data-name="Line 178" x1="16.671" transform="translate(0 23.504)" fill="none" stroke="#1a5186" stroke-miterlimit="10" stroke-width="1"/>
    <line id="Line_179" data-name="Line 179" x1="16.671" transform="translate(17.58 29.122)" fill="none" stroke="#1a5186" stroke-miterlimit="10" stroke-width="1"/>
    <line id="Line_180" data-name="Line 180" x1="2.779" transform="translate(9.311 34.885)" fill="none" stroke="#1a5186" stroke-miterlimit="10" stroke-width="1"/>
    <line id="Line_181" data-name="Line 181" x1="2.253" transform="translate(14.118 29.122)" fill="none" stroke="#1a5186" stroke-miterlimit="10" stroke-width="1"/>
    <line id="Line_182" data-name="Line 182" x1="0.751" transform="translate(9.011 29.163)" fill="none" stroke="#1a5186" stroke-miterlimit="10" stroke-width="1"/>
    <line id="Line_183" data-name="Line 183" x2="6.158" transform="translate(23.58 23.504)" fill="none" stroke="#1a5186" stroke-miterlimit="10" stroke-width="1"/>
    <line id="Line_184" data-name="Line 184" x2="2.929" transform="translate(25.457 17.887)" fill="none" stroke="#1a5186" stroke-miterlimit="10" stroke-width="1"/>
  </g>
</svg>
