<svg xmlns="http://www.w3.org/2000/svg" xmlns:xlink="http://www.w3.org/1999/xlink" width="40" height="40.255" viewBox="0 0 40 40.255">
  <defs>
    <clipPath id="clip-path">
      <rect id="Rectangle_8" data-name="Rectangle 8" width="40" height="40.255" transform="translate(0 0)" fill="#242424"/>
    </clipPath>
  </defs>
  <g id="Group_37" data-name="Group 37" clip-path="url(#clip-path)">
    <path id="Path_37" data-name="Path 37" d="M52.75,11.469a.522.522,0,0,0,.7-.037c.113-.113.51-.463.969-.869a47.276,47.276,0,0,0,3.8-3.581,4.516,4.516,0,0,0,.173-5.952A3.584,3.584,0,0,0,54.206.415a5.234,5.234,0,0,0-1.137.892c-.054-.062-.108-.12-.158-.17A3.693,3.693,0,0,0,49.076.252,3.507,3.507,0,0,0,47,2.582a5.162,5.162,0,0,0,1.158,4.94c.483.609,3.909,3.394,4.59,3.947M47.994,2.908a2.545,2.545,0,0,1,1.4-1.662,2.665,2.665,0,0,1,2.781.63,7.32,7.32,0,0,1,.489.588.506.506,0,0,0,.445.208.522.522,0,0,0,.421-.253,3.469,3.469,0,0,1,1.2-1.1,2.549,2.549,0,0,1,2.924.447A3.531,3.531,0,0,1,57.4,6.332a48.93,48.93,0,0,1-3.672,3.449c-.265.234-.492.434-.668.592-1.553-1.265-3.784-3.128-4.079-3.5a4.12,4.12,0,0,1-.984-3.965" transform="translate(-22.341 0)" fill="#242424"/>
    <path id="Path_38" data-name="Path 38" d="M41.409,38.174h-1.23a1.215,1.215,0,0,0-1.214,1.214v2.236a1.215,1.215,0,0,0,1.214,1.214h1.23a1.215,1.215,0,0,0,1.214-1.214V39.388a1.215,1.215,0,0,0-1.214-1.214m.169,3.45a.169.169,0,0,1-.169.169h-1.23a.169.169,0,0,1-.169-.169V39.388a.169.169,0,0,1,.169-.169h1.23a.169.169,0,0,1,.169.169Z" transform="translate(-18.607 -18.229)" fill="#242424"/>
    <path id="Path_39" data-name="Path 39" d="M50.981,38.174h-1.23a1.215,1.215,0,0,0-1.214,1.214v2.236a1.215,1.215,0,0,0,1.214,1.214h1.23a1.215,1.215,0,0,0,1.214-1.214V39.388a1.215,1.215,0,0,0-1.214-1.214m.169,3.45a.169.169,0,0,1-.169.169h-1.23a.169.169,0,0,1-.169-.169V39.388a.169.169,0,0,1,.169-.169h1.23a.169.169,0,0,1,.169.169Z" transform="translate(-23.178 -18.229)" fill="#242424"/>
    <path id="Path_40" data-name="Path 40" d="M60.625,38.174h-1.23a1.215,1.215,0,0,0-1.214,1.214v2.236a1.215,1.215,0,0,0,1.214,1.214h1.23a1.215,1.215,0,0,0,1.214-1.214V39.388a1.215,1.215,0,0,0-1.214-1.214m.169,3.45a.169.169,0,0,1-.169.169h-1.23a.169.169,0,0,1-.169-.169V39.388a.169.169,0,0,1,.169-.169h1.23a.169.169,0,0,1,.169.169Z" transform="translate(-27.783 -18.229)" fill="#242424"/>
    <path id="Path_41" data-name="Path 41" d="M41.409,48.39h-1.23A1.215,1.215,0,0,0,38.965,49.6V51.84a1.215,1.215,0,0,0,1.214,1.214h1.23a1.215,1.215,0,0,0,1.214-1.214V49.6a1.215,1.215,0,0,0-1.214-1.214m.169,3.45a.169.169,0,0,1-.169.169h-1.23a.169.169,0,0,1-.169-.169V49.6a.169.169,0,0,1,.169-.169h1.23a.169.169,0,0,1,.169.169Z" transform="translate(-18.607 -23.108)" fill="#242424"/>
    <path id="Path_42" data-name="Path 42" d="M50.981,48.39h-1.23A1.215,1.215,0,0,0,48.537,49.6V51.84a1.215,1.215,0,0,0,1.214,1.214h1.23a1.215,1.215,0,0,0,1.214-1.214V49.6a1.215,1.215,0,0,0-1.214-1.214m.169,3.45a.169.169,0,0,1-.169.169h-1.23a.169.169,0,0,1-.169-.169V49.6a.169.169,0,0,1,.169-.169h1.23a.169.169,0,0,1,.169.169Z" transform="translate(-23.178 -23.108)" fill="#242424"/>
    <path id="Path_43" data-name="Path 43" d="M60.625,48.39h-1.23A1.215,1.215,0,0,0,58.181,49.6V51.84a1.215,1.215,0,0,0,1.214,1.214h1.23a1.215,1.215,0,0,0,1.214-1.214V49.6a1.215,1.215,0,0,0-1.214-1.214m.169,3.45a.169.169,0,0,1-.169.169h-1.23a.169.169,0,0,1-.169-.169V49.6a.169.169,0,0,1,.169-.169h1.23a.169.169,0,0,1,.169.169Z" transform="translate(-27.783 -23.108)" fill="#242424"/>
    <path id="Path_44" data-name="Path 44" d="M41.409,58.606h-1.23a1.215,1.215,0,0,0-1.214,1.214v2.236a1.215,1.215,0,0,0,1.214,1.214h1.23a1.215,1.215,0,0,0,1.214-1.214V59.82a1.215,1.215,0,0,0-1.214-1.214m.169,3.45a.169.169,0,0,1-.169.169h-1.23a.169.169,0,0,1-.169-.169V59.82a.169.169,0,0,1,.169-.169h1.23a.169.169,0,0,1,.169.169Z" transform="translate(-18.607 -27.986)" fill="#242424"/>
    <path id="Path_45" data-name="Path 45" d="M50.981,58.606h-1.23a1.215,1.215,0,0,0-1.214,1.214v2.236a1.215,1.215,0,0,0,1.214,1.214h1.23a1.215,1.215,0,0,0,1.214-1.214V59.82a1.215,1.215,0,0,0-1.214-1.214m.169,3.45a.169.169,0,0,1-.169.169h-1.23a.169.169,0,0,1-.169-.169V59.82a.169.169,0,0,1,.169-.169h1.23a.169.169,0,0,1,.169.169Z" transform="translate(-23.178 -27.986)" fill="#242424"/>
    <path id="Path_46" data-name="Path 46" d="M16.629,26.058H15.4a1.215,1.215,0,0,0-1.214,1.214v2.236A1.215,1.215,0,0,0,15.4,30.722h1.23a1.215,1.215,0,0,0,1.213-1.214V27.272a1.215,1.215,0,0,0-1.213-1.214m.168,3.45a.169.169,0,0,1-.168.169H15.4a.169.169,0,0,1-.169-.169V27.272A.169.169,0,0,1,15.4,27.1h1.23a.169.169,0,0,1,.168.169Z" transform="translate(-6.774 -12.444)" fill="#242424"/>
    <path id="Path_47" data-name="Path 47" d="M26.2,26.058h-1.23a1.215,1.215,0,0,0-1.214,1.214v2.236a1.215,1.215,0,0,0,1.214,1.214H26.2a1.215,1.215,0,0,0,1.214-1.214V27.272A1.215,1.215,0,0,0,26.2,26.058m.169,3.45a.169.169,0,0,1-.169.169h-1.23a.169.169,0,0,1-.169-.169V27.272a.169.169,0,0,1,.169-.169H26.2a.169.169,0,0,1,.169.169Z" transform="translate(-11.345 -12.444)" fill="#242424"/>
    <path id="Path_48" data-name="Path 48" d="M16.629,36.275H15.4a1.215,1.215,0,0,0-1.214,1.214v2.236A1.215,1.215,0,0,0,15.4,40.939h1.23a1.215,1.215,0,0,0,1.213-1.214V37.489a1.215,1.215,0,0,0-1.213-1.214m.168,3.45a.169.169,0,0,1-.168.169H15.4a.169.169,0,0,1-.169-.169V37.489a.169.169,0,0,1,.169-.169h1.23a.169.169,0,0,1,.168.169Z" transform="translate(-6.774 -17.323)" fill="#242424"/>
    <path id="Path_49" data-name="Path 49" d="M26.2,36.275h-1.23a1.215,1.215,0,0,0-1.214,1.214v2.236a1.215,1.215,0,0,0,1.214,1.214H26.2a1.215,1.215,0,0,0,1.214-1.214V37.489A1.215,1.215,0,0,0,26.2,36.275m.169,3.45a.169.169,0,0,1-.169.169h-1.23a.169.169,0,0,1-.169-.169V37.489a.169.169,0,0,1,.169-.169H26.2a.169.169,0,0,1,.169.169Z" transform="translate(-11.345 -17.323)" fill="#242424"/>
    <path id="Path_50" data-name="Path 50" d="M16.629,46.491H15.4a1.215,1.215,0,0,0-1.214,1.214v2.236A1.215,1.215,0,0,0,15.4,51.155h1.23a1.215,1.215,0,0,0,1.213-1.214V47.705a1.215,1.215,0,0,0-1.213-1.214m.168,3.45a.169.169,0,0,1-.168.169H15.4a.169.169,0,0,1-.169-.169V47.705a.169.169,0,0,1,.169-.169h1.23a.169.169,0,0,1,.168.169Z" transform="translate(-6.774 -22.201)" fill="#242424"/>
    <path id="Path_51" data-name="Path 51" d="M26.2,46.491h-1.23a1.215,1.215,0,0,0-1.214,1.214v2.236a1.215,1.215,0,0,0,1.214,1.214H26.2a1.215,1.215,0,0,0,1.214-1.214V47.705A1.215,1.215,0,0,0,26.2,46.491m.169,3.45a.169.169,0,0,1-.169.169h-1.23a.169.169,0,0,1-.169-.169V47.705a.169.169,0,0,1,.169-.169H26.2a.169.169,0,0,1,.169.169Z" transform="translate(-11.345 -22.201)" fill="#242424"/>
    <path id="Path_52" data-name="Path 52" d="M60.625,58.606h-1.23a1.215,1.215,0,0,0-1.214,1.214v2.236a1.215,1.215,0,0,0,1.214,1.214h1.23a1.215,1.215,0,0,0,1.214-1.214V59.82a1.215,1.215,0,0,0-1.214-1.214m.169,3.45a.169.169,0,0,1-.169.169h-1.23a.169.169,0,0,1-.169-.169V59.82a.169.169,0,0,1,.169-.169h1.23a.169.169,0,0,1,.169.169Z" transform="translate(-27.783 -27.986)" fill="#242424"/>
    <path id="Path_53" data-name="Path 53" d="M39.478,45.311H35.873V23.7a2.138,2.138,0,0,0-.471-4.223H19.511V17.182a2.205,2.205,0,0,0-.146-4.406H4.115a2.206,2.206,0,0,0-.146,4.406V45.311H.522a.522.522,0,0,0,0,1.045H39.478a.522.522,0,0,0,0-1.045M35.4,20.519a1.095,1.095,0,0,1,0,2.189H19.511V20.519ZM2.949,14.987a1.167,1.167,0,0,1,1.166-1.166h15.25a1.166,1.166,0,1,1,0,2.331H4.115a1.167,1.167,0,0,1-1.166-1.166M5.014,17.2H18.467v6.018c0,.005,0,.01,0,.015v22.08H5.014Zm14.5,6.556H34.828V45.311H19.511Z" transform="translate(0 -6.101)" fill="#242424"/>
  </g>
</svg>
