<svg xmlns="http://www.w3.org/2000/svg" xmlns:xlink="http://www.w3.org/1999/xlink" width="40" height="41.66" viewBox="0 0 40 41.66">
  <defs>
    <clipPath id="clip-path">
      <rect id="Rectangle_20" data-name="Rectangle 20" width="40" height="41.66" fill="none"/>
    </clipPath>
  </defs>
  <g id="Group_57" data-name="Group 57" clip-path="url(#clip-path)">
    <path id="Path_116" data-name="Path 116" d="M23.567,25.787A11.634,11.634,0,0,0,14,36.185a15.429,15.429,0,0,1-1.508,6.083v.052a2.535,2.535,0,0,1-.156.364,3.582,3.582,0,0,0-.156.416,1.7,1.7,0,0,0,.052,1.508,1.931,1.931,0,0,0,1.2.988,3.53,3.53,0,0,1,1.04.364c.052.052.156.1.208.208.1.624.208,1.248.312,1.82.1.624.208,1.2.312,1.82a2.727,2.727,0,0,0,2.808,2.444h3.535a1.2,1.2,0,0,1,1.2,1.248.513.513,0,0,0,.52.468h.052a.47.47,0,0,0,.468-.572,2.236,2.236,0,0,0-2.236-2.236H18.056a1.725,1.725,0,0,1-1.82-1.56c-.1-.624-.208-1.248-.312-1.82s-.208-1.2-.26-1.82a1.421,1.421,0,0,0-.78-.988,7.015,7.015,0,0,0-1.248-.416,1.259,1.259,0,0,1-.572-.416.886.886,0,0,1,0-.728,2.535,2.535,0,0,1,.156-.364c.052-.1.1-.26.156-.364a17.026,17.026,0,0,0,1.56-6.447,10.8,10.8,0,0,1,8.735-9.463A10.636,10.636,0,0,1,34.433,43.1a5.9,5.9,0,0,0-1.04,3.535,14.177,14.177,0,0,0,.728,6.551.526.526,0,1,0,.988-.364,14.112,14.112,0,0,1-.624-6.187,4.92,4.92,0,0,1,.884-3.016,11.62,11.62,0,0,0,1.716-8.683,11.745,11.745,0,0,0-13.518-9.151" transform="translate(-5.776 -12.307)" fill="#231f20"/>
    <path id="Path_117" data-name="Path 117" d="M36.41,40.442a.52.52,0,0,0,1.04,0,2.985,2.985,0,0,0-3.016-3.016,3.018,3.018,0,0,0-3.016,3.016.52.52,0,0,0,1.04,0,1.976,1.976,0,1,1,3.951,0" transform="translate(-15.083 -17.967)" fill="#231f20"/>
    <path id="Path_118" data-name="Path 118" d="M38.141,37.88h0v-.416a4.005,4.005,0,0,0-4-4h-.26a4.05,4.05,0,0,0-3.587-2.236,3.986,3.986,0,0,0-3.951,3.484,3.325,3.325,0,0,0-.312,6.6,3.034,3.034,0,0,0,3.016,2.652.52.52,0,1,0,0-1.04,1.975,1.975,0,0,1-1.976-1.976v-.1a.491.491,0,0,0-.52-.52,2.288,2.288,0,1,1,0-4.575h.312a.491.491,0,0,0,.52-.52,2.93,2.93,0,0,1,2.964-2.964,2.988,2.988,0,0,1,2.7,1.716l.1.208a.6.6,0,0,0,.468.312h.572a2.93,2.93,0,0,1,2.964,2.964v.312a3.922,3.922,0,0,1-.416,1.248.526.526,0,1,0,.884.572c.1-.156.156-.312.26-.468a2.709,2.709,0,0,1,.468,1.508,2.471,2.471,0,0,1-4.939-.1,2.652,2.652,0,0,0,1.716-2.444.52.52,0,1,0-1.04,0A1.62,1.62,0,0,1,32.474,39.7a1.732,1.732,0,0,1-1.4-.832.526.526,0,0,0-.884.572,2.8,2.8,0,0,0,2.132,1.3,3.537,3.537,0,0,0,3.328,3.328h.208a3.487,3.487,0,0,0,3.484-3.328,3.8,3.8,0,0,0-1.2-2.86" transform="translate(-11.147 -14.99)" fill="#231f20"/>
    <path id="Path_119" data-name="Path 119" d="M14.151,28.046a.861.861,0,0,0,.676-.26.741.741,0,0,0,.312-.624.829.829,0,0,0-.208-.624.906.906,0,0,0-.624-.312.861.861,0,0,0-.676.26.813.813,0,0,0-.312.624.829.829,0,0,0,.208.624,1.417,1.417,0,0,0,.624.312" transform="translate(-6.394 -12.59)" fill="#231f20"/>
    <path id="Path_120" data-name="Path 120" d="M6.4,17.65a4.933,4.933,0,0,1,0-1.248,7.361,7.361,0,0,0,.052-.988,2.355,2.355,0,0,0-.156-.832,2.209,2.209,0,0,0-.52-.884,2.212,2.212,0,0,0-1.872-.78,3.863,3.863,0,0,0-2.236,1.144,4.433,4.433,0,0,0-1.3,1.716A4.013,4.013,0,0,0,.01,17.65l1.248-.156A2.983,2.983,0,0,1,2.4,15a2.55,2.55,0,0,1,1.352-.676,1.278,1.278,0,0,1,1.144.468,1.339,1.339,0,0,1,.364.832,4.964,4.964,0,0,1-.052,1.2,7.361,7.361,0,0,0-.052.988,2.355,2.355,0,0,0,.156.832,2.624,2.624,0,0,0,.52.884l1.04-.936A1.348,1.348,0,0,1,6.4,17.65" transform="translate(0 -6.199)" fill="#231f20"/>
    <path id="Path_121" data-name="Path 121" d="M35.751,1.21a2.49,2.49,0,0,1,1.4.468,1.343,1.343,0,0,1,.468,1.092,1.181,1.181,0,0,1-.312.832c-.208.208-.468.468-.832.78-.312.26-.572.468-.728.624a1.583,1.583,0,0,0-.468.676,2.473,2.473,0,0,0-.26.936l1.352.052a1.452,1.452,0,0,1,.312-.936A4.649,4.649,0,0,1,37.57,4.9c.312-.26.572-.468.728-.624a2.223,2.223,0,0,0,.468-.676,2.754,2.754,0,0,0,.26-.988,2.06,2.06,0,0,0-.78-1.82,3.929,3.929,0,0,0-2.34-.78,5.322,5.322,0,0,0-2.08.26,3.429,3.429,0,0,0-1.508,1.04l.936.78a3.084,3.084,0,0,1,2.5-.884" transform="translate(-15.516 0)" fill="#231f20"/>
    <path id="Path_122" data-name="Path 122" d="M37.8,15.426a.829.829,0,0,0-.624.208.861.861,0,0,0-.26.624.829.829,0,0,0,.208.624.861.861,0,0,0,.624.26.829.829,0,0,0,.624-.208.861.861,0,0,0,.26-.624.829.829,0,0,0-.208-.624.861.861,0,0,0-.624-.26" transform="translate(-17.724 -7.405)" fill="#231f20"/>
    <path id="Path_123" data-name="Path 123" d="M69.914,16.874A5.01,5.01,0,0,0,68.3,15.626a3.552,3.552,0,0,0-1.768-.312l.156,1.2A2.95,2.95,0,0,1,69.082,17.6a2.006,2.006,0,0,1,.624,1.3,1.277,1.277,0,0,1-.416,1.092,1.768,1.768,0,0,1-.78.364,10.1,10.1,0,0,1-1.144-.052,6.309,6.309,0,0,0-.936-.052,2.086,2.086,0,0,0-.78.156,2.441,2.441,0,0,0-.832.52l.884.988a1.55,1.55,0,0,1,.884-.416,4.526,4.526,0,0,1,1.2,0,6.309,6.309,0,0,0,.936.052,2.586,2.586,0,0,0,.832-.156,2.381,2.381,0,0,0,1.56-2.34,5.712,5.712,0,0,0-1.2-2.184" transform="translate(-31.118 -7.345)" fill="#231f20"/>
    <path id="Path_124" data-name="Path 124" d="M61.555,28.025a1,1,0,0,0-.624.208,1.239,1.239,0,0,0-.312.572,1,1,0,0,0,.208.624,1.239,1.239,0,0,0,.572.312,1,1,0,0,0,.624-.208,1.239,1.239,0,0,0,.312-.572,1,1,0,0,0-.208-.624.718.718,0,0,0-.572-.312" transform="translate(-29.102 -13.454)" fill="#231f20"/>
  </g>
</svg>
