<svg xmlns="http://www.w3.org/2000/svg" xmlns:xlink="http://www.w3.org/1999/xlink" width="25" height="25" viewBox="0 0 25 25">
  <defs>
    <clipPath id="clip-path">
      <rect id="Rectangle_2948" data-name="Rectangle 2948" width="25" height="25" fill="none"/>
    </clipPath>
  </defs>
  <g id="Group_5901" data-name="Group 5901" transform="translate(-1 0)">
    <g id="Group_5900" data-name="Group 5900" transform="translate(1 0)" clip-path="url(#clip-path)">
      <path id="Path_5171" data-name="Path 5171" d="M11.174,18.854a2.724,2.724,0,0,1-.533-.051,1.648,1.648,0,0,1-1.427-1.166,2.079,2.079,0,0,1-.07-.315l-.013-.073L9.1,17.237a6.066,6.066,0,0,1-1.131-.51,2.186,2.186,0,0,0-.306.248,1.68,1.68,0,0,1-2.129-.036,1.587,1.587,0,0,1-.241-.214,1.13,1.13,0,0,0-.157-.14,1.7,1.7,0,0,1-.491-2,6.04,6.04,0,0,1,.417-.89.415.415,0,0,0,.087-.322l-.038-.007a3.354,3.354,0,0,1-.7-.229,1.667,1.667,0,0,1-.964-.853,5.172,5.172,0,0,1-.085-1.663h0A1.7,1.7,0,0,1,4.5,9.371a2.1,2.1,0,0,1,.618-.137c-.013,0,.044-.019.063-.03-.019-.027.009-.11.031-.177l0-.111c-.071-.162-.151-.333-.231-.5-.1-.214-.2-.429-.285-.628a1.7,1.7,0,0,1,.443-1.981,1.308,1.308,0,0,0,.2-.174,1.977,1.977,0,0,1,.286-.246,1.638,1.638,0,0,1,2.02-.11,5.263,5.263,0,0,0,.545.376c.359-.155.688-.3.977-.44.019-.091.037-.2.056-.312.03-.177.06-.353.09-.473a1.454,1.454,0,0,1,1.014-1.081l.117-.016,1.368,0,.041.009a1.586,1.586,0,0,1,1.328,1.328l.135.534c.194.075.356.152.51.226.067.033.132.064.2.093l.525-.393a1.683,1.683,0,0,1,2.083.131,1.52,1.52,0,0,1,.43.426A1.64,1.64,0,0,1,17.456,7.7c-.078.157-.145.3-.209.447s-.147.318-.234.491a.4.4,0,0,0-.04.369L17,9.094v0a5.118,5.118,0,0,1,.723.224,1.525,1.525,0,0,1,1.095,1.343,3.058,3.058,0,0,1,0,1.056,1.656,1.656,0,0,1-1.169,1.44,1.627,1.627,0,0,1-.577.131c-.063.021-.065.036-.078.1l0-.006a.617.617,0,0,1-.013.1c.064.172.145.347.228.523s.168.367.253.564a1.706,1.706,0,0,1-.367,1.905c-.093.093-.184.169-.276.246-.074.061-.147.122-.221.2a1.664,1.664,0,0,1-2.085.11,3.929,3.929,0,0,1-.416-.306l-.439.2c-.158.073-.318.147-.486.219l-.034.034c-.04.132-.08.289-.12.447a1.555,1.555,0,0,1-1.37,1.185,2.392,2.392,0,0,1-.481.046M9.93,16.913a2.014,2.014,0,0,1,.057.269,1.363,1.363,0,0,0,.04.184.826.826,0,0,0,.742.594,2.08,2.08,0,0,0,.756.006.708.708,0,0,0,.672-.544c.056-.226.111-.444.167-.609l.1-.164.3-.258c.189-.083.365-.162.541-.243s.366-.168.562-.253a.553.553,0,0,1,.691.091,2.527,2.527,0,0,0,.433.332.818.818,0,0,0,1.027-.02c.073-.074.165-.152.258-.229.074-.061.147-.121.219-.194a.849.849,0,0,0,.188-.961c-.084-.194-.165-.369-.246-.545s-.169-.366-.253-.562a.74.74,0,0,1-.041-.46l.014-.122a.958.958,0,0,1,.833-.777.811.811,0,0,0,.286-.061l.1-.036a.825.825,0,0,0,.6-.743,2.32,2.32,0,0,0,.006-.812.711.711,0,0,0-.544-.672,3.889,3.889,0,0,0-.722-.208l-.105-.036a.586.586,0,0,1-.4-.466.613.613,0,0,1-.048-.14,1.245,1.245,0,0,1,.088-1.017c.083-.165.15-.315.218-.463s.141-.309.224-.476a.791.791,0,0,0-.232-1.037L16.388,6.2a.889.889,0,0,0-.268-.268.847.847,0,0,0-1.074-.111l-.757.57-.466-.031c-.12-.048-.239-.105-.363-.164a4.2,4.2,0,0,0-.5-.214.608.608,0,0,1-.457-.571l-.154-.56a.75.75,0,0,0-.624-.669l-1.215,0a.6.6,0,0,0-.373.463c-.021.088-.046.241-.073.393-.03.177-.058.353-.088.471l-.03.117-.085.085a.676.676,0,0,1-.32.266c-.327.161-.7.323-1.081.484a.562.562,0,0,1-.626-.034,5.191,5.191,0,0,1-.682-.458.813.813,0,0,0-1.008.091,1.351,1.351,0,0,0-.2.172,1.891,1.891,0,0,1-.285.248.848.848,0,0,0-.178.961c.084.2.181.4.276.608s.194.417.278.611l.034.169v.221a.778.778,0,0,1-.048.246.923.923,0,0,1-.77.776,1.711,1.711,0,0,0-.466.1.838.838,0,0,0-.6.628l-.011.05a8.993,8.993,0,0,0,.056,1.111.893.893,0,0,0,.5.383,2.821,2.821,0,0,0,.575.185l.111.027c.114-.014.278.137.359.218l.071.088a1.17,1.17,0,0,1-.056,1.267,5.283,5.283,0,0,0-.357.766.845.845,0,0,0,.216,1.011,1.586,1.586,0,0,1,.242.214,1.206,1.206,0,0,0,.155.14.842.842,0,0,0,1.072.056,2.79,2.79,0,0,1,.49-.383.594.594,0,0,1,.767.05,5.19,5.19,0,0,0,1.014.45l.115.043a.548.548,0,0,1,.423.436m-2.1-.279a.065.065,0,0,0,.027.019Zm-2.64-3.252a.624.624,0,0,0,.128.019l-.124-.023ZM13.345,5.3l0,.01s0,0,0-.01m-2.178,8.821A3.006,3.006,0,0,1,8.2,11.152a2.97,2.97,0,0,1,2.966-2.967,3.048,3.048,0,0,1,2.966,2.95,3.009,3.009,0,0,1-2.966,2.983m0-5.079a2.116,2.116,0,0,0-2.113,2.113,2.113,2.113,0,0,0,4.226,0,2.184,2.184,0,0,0-2.113-2.113" transform="translate(1.407 1.41)"/>
    </g>
  </g>
</svg>
