<svg xmlns="http://www.w3.org/2000/svg" xmlns:xlink="http://www.w3.org/1999/xlink" width="40" height="34.437" viewBox="0 0 40 34.437">
  <defs>
    <clipPath id="clip-path">
      <rect id="Rectangle_10" data-name="Rectangle 10" width="40" height="34.437" transform="translate(0 0)"/>
    </clipPath>
  </defs>
  <g id="Group_42" data-name="Group 42" transform="translate(0 0)">
    <g id="Group_41" data-name="Group 41" transform="translate(0 0)" clip-path="url(#clip-path)">
      <path id="Path_62" data-name="Path 62" d="M35.176,0H23.259a4.773,4.773,0,0,0-4.824,4.824V20.447a50.049,50.049,0,0,0-7.6-.077,19.569,19.569,0,0,0-6.491,1.157A12.021,12.021,0,0,0,2.1,22.81,5.493,5.493,0,0,0,.12,26.267,7.657,7.657,0,0,0,0,28.274,6.393,6.393,0,0,0,2.866,33.42a7.393,7.393,0,0,0,8.995-1.189c.26-.26.519-.545.778-.83s.5-.55.749-.8l.177-.177a.609.609,0,0,1,.4-.067.592.592,0,0,1,.382.2.432.432,0,0,0,.089.089,5.1,5.1,0,0,1,.947,1.054,7.4,7.4,0,0,0,5.076,2.7,6.686,6.686,0,0,0,.736.04A7.272,7.272,0,0,0,25.9,32.653a6.062,6.062,0,0,0,1.979-4.4c0-.008,0-.015,0-.022a9.475,9.475,0,0,0-.437-2.692,5.724,5.724,0,0,0-3.931-4.019,18.768,18.768,0,0,0-4.189-1,.1.1,0,0,0,0-.011V4.824A3.893,3.893,0,0,1,23.259.889H35.176a3.893,3.893,0,0,1,3.935,3.935V20.51a3.893,3.893,0,0,1-3.935,3.934H28.861a.445.445,0,1,0,0,.889h6.315A4.773,4.773,0,0,0,40,20.51V4.824A4.774,4.774,0,0,0,35.176,0M26.6,25.823a.461.461,0,0,0,.047.11,8.771,8.771,0,0,1,.345,2.328,5.152,5.152,0,0,1-1.678,3.726,6.3,6.3,0,0,1-4.778,1.523,6.507,6.507,0,0,1-4.459-2.372,5.864,5.864,0,0,0-1.059-1.171,1.543,1.543,0,0,0-2.006-.239.488.488,0,0,0-.048.042l-.2.2c-.259.26-.519.545-.778.83s-.5.55-.749.8a6.5,6.5,0,0,1-7.9,1.058A5.49,5.49,0,0,1,.889,28.25a14.251,14.251,0,0,1,.058-1.642.431.431,0,0,0,.038-.124,4.568,4.568,0,0,1,1.653-2.965,11.147,11.147,0,0,1,2.028-1.164,18.757,18.757,0,0,1,6.2-1.1,50.413,50.413,0,0,1,7.881.1,17.307,17.307,0,0,1,4.493,1A4.8,4.8,0,0,1,26.6,25.823" transform="translate(0 0)"/>
      <path id="Path_63" data-name="Path 63" d="M48.082,16.234h8.556a.445.445,0,0,0,0-.889H48.082a.445.445,0,0,0,0,.889" transform="translate(-26.452 -8.521)"/>
      <path id="Path_64" data-name="Path 64" d="M48.082,22.647h8.556a.445.445,0,0,0,0-.889H48.082a.445.445,0,0,0,0,.889" transform="translate(-26.452 -12.082)"/>
      <path id="Path_65" data-name="Path 65" d="M48.082,28.83h8.556a.445.445,0,0,0,0-.889H48.082a.445.445,0,0,0,0,.889" transform="translate(-26.452 -15.515)"/>
      <path id="Path_66" data-name="Path 66" d="M48.082,35.7h8.556a.445.445,0,0,0,0-.889H48.082a.445.445,0,0,0,0,.889" transform="translate(-26.452 -19.331)"/>
      <path id="Path_67" data-name="Path 67" d="M48.082,41.427h8.556a.445.445,0,0,0,0-.889H48.082a.445.445,0,0,0,0,.889" transform="translate(-26.452 -22.51)"/>
      <path id="Path_68" data-name="Path 68" d="M77.7,16.618a1.613,1.613,0,0,0,1.667-1.667v-.917A1.613,1.613,0,0,0,77.7,12.367H76.89a1.7,1.7,0,0,0-1.769,1.667v.917a1.612,1.612,0,0,0,1.667,1.667ZM76.01,14.951v-.917a.828.828,0,0,1,.879-.778H77.7a.737.737,0,0,1,.777.778v.917a.736.736,0,0,1-.777.778h-.917a.736.736,0,0,1-.777-.778" transform="translate(-41.714 -6.867)"/>
      <path id="Path_69" data-name="Path 69" d="M75.121,25.945a1.612,1.612,0,0,0,1.667,1.667H77.7a1.612,1.612,0,0,0,1.667-1.667v-.917A1.612,1.612,0,0,0,77.7,23.361H76.89a1.765,1.765,0,0,0-1.769,1.667Zm.889-.917a.889.889,0,0,1,.879-.777H77.7a.736.736,0,0,1,.777.777v.917a.736.736,0,0,1-.777.777h-.917a.736.736,0,0,1-.777-.777Z" transform="translate(-41.714 -12.972)"/>
      <path id="Path_70" data-name="Path 70" d="M75.121,37.4a1.612,1.612,0,0,0,1.667,1.667H77.7A1.612,1.612,0,0,0,79.372,37.4V36.48A1.612,1.612,0,0,0,77.7,34.813H76.89a1.7,1.7,0,0,0-1.769,1.667Zm.889-.917a.827.827,0,0,1,.879-.777H77.7a.736.736,0,0,1,.777.777V37.4a.736.736,0,0,1-.777.777h-.917a.736.736,0,0,1-.777-.777Z" transform="translate(-41.714 -19.331)"/>
      <path id="Path_71" data-name="Path 71" d="M14.253,59.372a1.9,1.9,0,0,0,.458-1.211.445.445,0,0,0-.889,0c0,.863-1.289,1.592-2.815,1.592s-2.815-.729-2.815-1.592a.445.445,0,0,0-.889,0,1.993,1.993,0,0,0,.691,1.457l-.812,1.137a.445.445,0,1,0,.724.517l.818-1.146a4.767,4.767,0,0,0,1.737.488v1.01a.445.445,0,0,0,.889,0v-.993a4.66,4.66,0,0,0,2.233-.675l.76.844a.445.445,0,1,0,.661-.6Z" transform="translate(-3.942 -32.049)"/>
      <path id="Path_72" data-name="Path 72" d="M38.882,58.161a.445.445,0,0,0-.889,0,2,2,0,0,0,.691,1.457l-.812,1.137a.444.444,0,1,0,.723.517l.818-1.146a4.817,4.817,0,0,0,1.838.5v1a.445.445,0,0,0,.889,0v-1a4.571,4.571,0,0,0,2.2-.708l.8.885a.445.445,0,0,0,.661-.6l-.806-.9a1.88,1.88,0,0,0,.41-1.15.445.445,0,0,0-.889,0c0,.863-1.288,1.592-2.814,1.592s-2.815-.729-2.815-1.592" transform="translate(-20.984 -32.049)"/>
      <path id="Path_73" data-name="Path 73" d="M2.114,12.246l3.441-.535L2.312,15.7a.445.445,0,0,0,.346.725.5.5,0,0,0,.057,0L7.4,15.813a.445.445,0,0,0-.115-.882l-3.58.467,3.27-4.023a.445.445,0,0,0-.414-.72l-4.584.713a.445.445,0,0,0,.137.879" transform="translate(-0.889 -5.913)"/>
      <path id="Path_74" data-name="Path 74" d="M13.058,30.918a.444.444,0,0,0,.5.378l1.707-.244-1.806,2.167a.445.445,0,0,0,.342.729.4.4,0,0,0,.06,0l2.954-.407a.445.445,0,0,0,.38-.5.439.439,0,0,0-.5-.38l-1.817.25,1.811-2.173a.445.445,0,0,0-.4-.725l-2.851.407a.445.445,0,0,0-.378.5" transform="translate(-7.249 -16.66)"/>
    </g>
  </g>
</svg>
